<svg width="757" height="756" viewBox="0 0 757 756" fill="none" xmlns="http://www.w3.org/2000/svg">
<path fill-rule="evenodd" clip-rule="evenodd" d="M508.221 49.769C437.318 62.249 378.272 112.286 353.909 180.536C346.245 202.005 343.398 219.882 343.34 246.887C343.283 274.124 345.236 286.835 353.111 310.47C357.669 324.15 371.835 353.387 373.907 353.387C374.543 353.387 376.268 350.181 377.739 346.262C387.968 319.031 406.176 291.15 427.955 269.37C458.85 238.476 497.361 217.868 541.971 208.355C561.357 204.222 606.285 204.614 627.003 209.099C666.314 217.607 702.846 236.109 731.346 261.947C736.914 266.994 741.471 270.779 741.471 270.354C741.471 269.931 738.719 261.608 735.354 251.861C721.95 213.027 695.288 166.58 667.385 133.452C643.308 104.867 607.293 73.943 576.263 55.2095L563.304 47.387L541.763 47.522C529.916 47.5955 514.821 48.6065 508.221 49.769ZM176.402 57.83C144.978 77.8355 112.812 105.845 89.5579 133.452C61.4959 166.769 34.8739 213.227 21.4519 252.305L15.2119 270.473L17.6464 283.46C33.0154 365.483 98.3254 429.906 180.36 443.965C198.329 447.044 229.937 447.101 247.4 444.088C274.221 439.458 300.137 429.524 321.716 415.599C332.646 408.545 355.971 389.754 355.971 388.004C355.971 387.5 348.195 385.592 338.69 383.763C258.722 368.383 195.314 313.142 170.07 236.867C162.041 212.603 159.084 193.881 159.098 167.387C159.116 130.994 165.479 103.874 181.623 71.387C187.158 60.2495 191.919 50.6315 192.204 50.012C193.323 47.576 189.665 49.3865 176.402 57.83ZM4.61738 319.145C1.97888 326.021 0.175883 359.408 0.879383 388.367C1.71788 422.858 4.40588 442.875 12.3064 473.469C22.3159 512.234 40.4809 553.021 62.0389 585.137C68.6029 594.917 70.0009 596.091 82.4044 602.249C114.201 618.036 138.509 623.861 172.971 623.954C228.603 624.104 275.798 604.726 314.804 565.719C344.141 536.382 364.031 498.485 371.138 458.387C373.227 446.6 373.997 403.916 372.153 402.069C371.565 401.481 366.207 405.517 360.245 411.036C334.523 434.852 297.938 453.508 261.261 461.513C189.543 477.166 115.748 456.299 62.3194 405.26C36.7474 380.832 21.7009 357.714 6.65438 319.734C5.69888 317.322 5.35538 317.222 4.61738 319.145ZM439.29 369.162C426.528 371.243 414.468 374.252 406.031 377.459C402.299 378.878 402.503 379.136 413.831 387.263C461.898 421.75 492.207 469.163 503.922 528.191C507.926 548.363 507.572 588.995 503.213 609.419C496.998 638.547 485.618 665.755 469.686 689.571C457.64 707.581 432.95 733.069 415.88 745.117C408.474 750.343 403.137 754.859 404.018 755.153C406.914 756.117 435.864 752.294 454.971 748.421C525.386 734.151 592.259 698.3 644.511 646.805C660.017 631.525 660.528 630.527 666.126 604.638C669.417 589.419 669.72 546.701 666.648 531.137C650.87 451.184 592.577 390.596 513.471 371.93C493.23 367.152 459.366 365.889 439.29 369.162Z" fill="white"/>
<path d="M389.256 468.419C391.974 455.849 392.576 448.16 392.642 425.085L392.721 397.034L396.471 399.396C406.896 405.96 422.802 419.163 432.188 429.044C452.049 449.952 467.916 476.478 477.105 504.137C493.688 554.052 489.605 609.849 465.917 657.023C444.507 699.657 403.631 736.778 360.092 753.122C353.657 755.537 351.398 755.622 336.842 753.989C271.697 746.684 205.467 720.756 153.953 682.391C129.752 664.368 95.4226 632.291 100.47 632.418C101.159 632.436 107.399 634.116 114.338 636.152C135.125 642.251 157.398 644.88 180.471 643.958C238.193 641.651 289.161 619.625 328.916 579.81C359.663 549.017 379.913 511.635 389.256 468.419Z" fill="#D5A848"/>
<path d="M484.274 250.553C505.714 238.562 534.126 228.987 557.085 226.014C607.101 219.54 662.632 234.03 702.471 263.954C717.591 275.309 736.879 294.996 745.903 308.286C752.03 317.309 752.498 318.762 754.562 335.231C757.645 359.828 756.396 413.556 752.169 438.219C743.04 491.48 724.542 539.646 696.761 582.492C692.889 588.462 689.384 593.355 688.971 593.366C688.559 593.375 688.22 580.728 688.217 565.26C688.213 534.425 686.518 522.948 678.307 498.137C667.346 465.024 650.12 437.349 624.565 411.794C583.919 371.147 535.708 350.085 478.221 347.864C448.934 346.731 430.988 349.181 398.126 358.8C394.77 359.781 394.602 359.561 395.615 355.494C397.614 347.462 408.392 326.09 416.867 313.352C432.671 289.602 460.036 264.107 484.274 250.553Z" fill="#D5A848"/>
<path d="M302.722 7.02961C315.79 4.42711 324.091 3.20461 348.472 0.293112C351.359 -0.0503884 368.234 -0.0998885 385.972 0.186611C424.075 0.798611 447.043 3.95611 479.722 13.0731C492.22 16.5591 521.285 26.5791 520.661 27.1851C520.42 27.4191 514.147 28.6581 506.722 29.9361C484.084 33.8361 467.198 39.4551 445.222 50.3991C419.957 62.9811 403.4 75.1146 384.205 95.1141C346.076 134.839 325.796 182.519 323.479 237.887C321.715 280.01 330.944 319.394 350.692 354.014C354.419 360.547 357.239 366.119 356.962 366.397C355.732 367.627 328.505 361.832 316.228 357.728C285.481 347.45 260.695 332.009 237.329 308.576C209.617 280.783 193.268 251.518 183.256 211.781C178.861 194.335 177.754 155.303 181.103 135.887C187.552 98.5026 201.836 67.6911 226.387 38.2086C235.606 27.1371 236.315 26.6346 249.062 22.1421C268.627 15.2466 285.925 10.3761 302.722 7.02961Z" fill="#D5A848"/>
<path d="M238.648 162.288C237.48 162.288 236.32 162.136 235.168 161.832C234.032 161.512 233.056 161.064 232.24 160.488L233.776 157.512C234.416 157.976 235.152 158.344 235.984 158.616C236.832 158.888 237.688 159.024 238.552 159.024C239.528 159.024 240.296 158.832 240.856 158.448C241.416 158.064 241.696 157.528 241.696 156.84C241.696 156.408 241.584 156.024 241.36 155.688C241.136 155.352 240.736 155.096 240.16 154.92C239.6 154.744 238.808 154.656 237.784 154.656H233.488L234.352 145.2H244.6V148.32H235.744L237.76 146.544L237.16 153.288L235.144 151.512H238.696C240.36 151.512 241.696 151.744 242.704 152.208C243.728 152.656 244.472 153.272 244.936 154.056C245.4 154.84 245.632 155.728 245.632 156.72C245.632 157.712 245.384 158.632 244.888 159.48C244.392 160.312 243.624 160.992 242.584 161.52C241.56 162.032 240.248 162.288 238.648 162.288ZM254.409 162.288C253.033 162.288 251.801 161.952 250.713 161.28C249.625 160.592 248.769 159.6 248.145 158.304C247.521 157.008 247.209 155.44 247.209 153.6C247.209 151.76 247.521 150.192 248.145 148.896C248.769 147.6 249.625 146.616 250.713 145.944C251.801 145.256 253.033 144.912 254.409 144.912C255.801 144.912 257.033 145.256 258.105 145.944C259.193 146.616 260.049 147.6 260.673 148.896C261.297 150.192 261.609 151.76 261.609 153.6C261.609 155.44 261.297 157.008 260.673 158.304C260.049 159.6 259.193 160.592 258.105 161.28C257.033 161.952 255.801 162.288 254.409 162.288ZM254.409 159C255.065 159 255.633 158.816 256.113 158.448C256.609 158.08 256.993 157.496 257.265 156.696C257.553 155.896 257.697 154.864 257.697 153.6C257.697 152.336 257.553 151.304 257.265 150.504C256.993 149.704 256.609 149.12 256.113 148.752C255.633 148.384 255.065 148.2 254.409 148.2C253.769 148.2 253.201 148.384 252.705 148.752C252.225 149.12 251.841 149.704 251.553 150.504C251.281 151.304 251.145 152.336 251.145 153.6C251.145 154.864 251.281 155.896 251.553 156.696C251.841 157.496 252.225 158.08 252.705 158.448C253.201 158.816 253.769 159 254.409 159ZM270.698 162.288C269.322 162.288 268.09 161.952 267.002 161.28C265.914 160.592 265.058 159.6 264.434 158.304C263.81 157.008 263.498 155.44 263.498 153.6C263.498 151.76 263.81 150.192 264.434 148.896C265.058 147.6 265.914 146.616 267.002 145.944C268.09 145.256 269.322 144.912 270.698 144.912C272.09 144.912 273.322 145.256 274.394 145.944C275.482 146.616 276.338 147.6 276.962 148.896C277.586 150.192 277.898 151.76 277.898 153.6C277.898 155.44 277.586 157.008 276.962 158.304C276.338 159.6 275.482 160.592 274.394 161.28C273.322 161.952 272.09 162.288 270.698 162.288ZM270.698 159C271.354 159 271.922 158.816 272.402 158.448C272.898 158.08 273.282 157.496 273.554 156.696C273.842 155.896 273.986 154.864 273.986 153.6C273.986 152.336 273.842 151.304 273.554 150.504C273.282 149.704 272.898 149.12 272.402 148.752C271.922 148.384 271.354 148.2 270.698 148.2C270.058 148.2 269.49 148.384 268.994 148.752C268.514 149.12 268.13 149.704 267.842 150.504C267.57 151.304 267.434 152.336 267.434 153.6C267.434 154.864 267.57 155.896 267.842 156.696C268.13 157.496 268.514 158.08 268.994 158.448C269.49 158.816 270.058 159 270.698 159ZM287.736 162V145.2H295.008C296.512 145.2 297.808 145.448 298.896 145.944C299.984 146.424 300.824 147.12 301.416 148.032C302.008 148.944 302.304 150.032 302.304 151.296C302.304 152.544 302.008 153.624 301.416 154.536C300.824 155.448 299.984 156.152 298.896 156.648C297.808 157.128 296.512 157.368 295.008 157.368H289.896L291.624 155.616V162H287.736ZM291.624 156.048L289.896 154.2H294.792C295.992 154.2 296.888 153.944 297.48 153.432C298.072 152.92 298.368 152.208 298.368 151.296C298.368 150.368 298.072 149.648 297.48 149.136C296.888 148.624 295.992 148.368 294.792 148.368H289.896L291.624 146.52V156.048Z" fill="white"/>
<path d="M348.528 626V610.64L350.208 612.32H345.168V609.2H352.416V626H348.528ZM361.046 626.288C359.878 626.288 358.718 626.136 357.566 625.832C356.43 625.512 355.454 625.064 354.638 624.488L356.174 621.512C356.814 621.976 357.55 622.344 358.382 622.616C359.23 622.888 360.086 623.024 360.95 623.024C361.926 623.024 362.694 622.832 363.254 622.448C363.814 622.064 364.094 621.528 364.094 620.84C364.094 620.408 363.982 620.024 363.758 619.688C363.534 619.352 363.134 619.096 362.558 618.92C361.998 618.744 361.206 618.656 360.182 618.656H355.886L356.75 609.2H366.998V612.32H358.142L360.158 610.544L359.558 617.288L357.542 615.512H361.094C362.758 615.512 364.094 615.744 365.102 616.208C366.126 616.656 366.87 617.272 367.334 618.056C367.798 618.84 368.03 619.728 368.03 620.72C368.03 621.712 367.782 622.632 367.286 623.48C366.79 624.312 366.022 624.992 364.982 625.52C363.958 626.032 362.646 626.288 361.046 626.288ZM376.808 626.288C375.432 626.288 374.2 625.952 373.112 625.28C372.024 624.592 371.168 623.6 370.544 622.304C369.92 621.008 369.608 619.44 369.608 617.6C369.608 615.76 369.92 614.192 370.544 612.896C371.168 611.6 372.024 610.616 373.112 609.944C374.2 609.256 375.432 608.912 376.808 608.912C378.2 608.912 379.432 609.256 380.504 609.944C381.592 610.616 382.448 611.6 383.072 612.896C383.696 614.192 384.008 615.76 384.008 617.6C384.008 619.44 383.696 621.008 383.072 622.304C382.448 623.6 381.592 624.592 380.504 625.28C379.432 625.952 378.2 626.288 376.808 626.288ZM376.808 623C377.464 623 378.032 622.816 378.512 622.448C379.008 622.08 379.392 621.496 379.664 620.696C379.952 619.896 380.096 618.864 380.096 617.6C380.096 616.336 379.952 615.304 379.664 614.504C379.392 613.704 379.008 613.12 378.512 612.752C378.032 612.384 377.464 612.2 376.808 612.2C376.168 612.2 375.6 612.384 375.104 612.752C374.624 613.12 374.24 613.704 373.952 614.504C373.68 615.304 373.544 616.336 373.544 617.6C373.544 618.864 373.68 619.896 373.952 620.696C374.24 621.496 374.624 622.08 375.104 622.448C375.6 622.816 376.168 623 376.808 623ZM393.097 626.288C391.721 626.288 390.489 625.952 389.401 625.28C388.313 624.592 387.457 623.6 386.833 622.304C386.209 621.008 385.897 619.44 385.897 617.6C385.897 615.76 386.209 614.192 386.833 612.896C387.457 611.6 388.313 610.616 389.401 609.944C390.489 609.256 391.721 608.912 393.097 608.912C394.489 608.912 395.721 609.256 396.793 609.944C397.881 610.616 398.737 611.6 399.361 612.896C399.985 614.192 400.297 615.76 400.297 617.6C400.297 619.44 399.985 621.008 399.361 622.304C398.737 623.6 397.881 624.592 396.793 625.28C395.721 625.952 394.489 626.288 393.097 626.288ZM393.097 623C393.753 623 394.321 622.816 394.801 622.448C395.297 622.08 395.681 621.496 395.953 620.696C396.241 619.896 396.385 618.864 396.385 617.6C396.385 616.336 396.241 615.304 395.953 614.504C395.681 613.704 395.297 613.12 394.801 612.752C394.321 612.384 393.753 612.2 393.097 612.2C392.457 612.2 391.889 612.384 391.393 612.752C390.913 613.12 390.529 613.704 390.241 614.504C389.969 615.304 389.833 616.336 389.833 617.6C389.833 618.864 389.969 619.896 390.241 620.696C390.529 621.496 390.913 622.08 391.393 622.448C391.889 622.816 392.457 623 393.097 623ZM410.135 626V609.2H417.407C418.911 609.2 420.207 609.448 421.295 609.944C422.383 610.424 423.223 611.12 423.815 612.032C424.407 612.944 424.703 614.032 424.703 615.296C424.703 616.544 424.407 617.624 423.815 618.536C423.223 619.448 422.383 620.152 421.295 620.648C420.207 621.128 418.911 621.368 417.407 621.368H412.295L414.023 619.616V626H410.135ZM414.023 620.048L412.295 618.2H417.191C418.391 618.2 419.287 617.944 419.879 617.432C420.471 616.92 420.767 616.208 420.767 615.296C420.767 614.368 420.471 613.648 419.879 613.136C419.287 612.624 418.391 612.368 417.191 612.368H412.295L414.023 610.52V620.048Z" fill="white"/>
<path d="M94.9918 325V308.2H102.264C103.768 308.2 105.064 308.448 106.152 308.944C107.24 309.424 108.08 310.12 108.672 311.032C109.264 311.944 109.56 313.032 109.56 314.296C109.56 315.544 109.264 316.624 108.672 317.536C108.08 318.432 107.24 319.12 106.152 319.6C105.064 320.08 103.768 320.32 102.264 320.32H97.1518L98.8798 318.616V325H94.9918ZM105.672 325L101.472 318.904H105.624L109.872 325H105.672ZM98.8798 319.048L97.1518 317.224H102.048C103.248 317.224 104.144 316.968 104.736 316.456C105.328 315.928 105.624 315.208 105.624 314.296C105.624 313.368 105.328 312.648 104.736 312.136C104.144 311.624 103.248 311.368 102.048 311.368H97.1518L98.8798 309.52V319.048ZM118.784 325.192C117.312 325.192 116.016 324.904 114.896 324.328C113.792 323.752 112.936 322.968 112.328 321.976C111.72 320.968 111.416 319.824 111.416 318.544C111.416 317.248 111.712 316.104 112.304 315.112C112.912 314.104 113.736 313.32 114.776 312.76C115.816 312.184 116.992 311.896 118.304 311.896C119.568 311.896 120.704 312.168 121.712 312.712C122.736 313.24 123.544 314.008 124.136 315.016C124.728 316.008 125.024 317.2 125.024 318.592C125.024 318.736 125.016 318.904 125 319.096C124.984 319.272 124.968 319.44 124.952 319.6H114.464V317.416H122.984L121.544 318.064C121.544 317.392 121.408 316.808 121.136 316.312C120.864 315.816 120.488 315.432 120.008 315.16C119.528 314.872 118.968 314.728 118.328 314.728C117.688 314.728 117.12 314.872 116.624 315.16C116.144 315.432 115.768 315.824 115.496 316.336C115.224 316.832 115.088 317.424 115.088 318.112V318.688C115.088 319.392 115.24 320.016 115.544 320.56C115.864 321.088 116.304 321.496 116.864 321.784C117.44 322.056 118.112 322.192 118.88 322.192C119.568 322.192 120.168 322.088 120.68 321.88C121.208 321.672 121.688 321.36 122.12 320.944L124.112 323.104C123.52 323.776 122.776 324.296 121.88 324.664C120.984 325.016 119.952 325.192 118.784 325.192ZM131.861 325.192C130.757 325.192 129.693 325.064 128.669 324.808C127.661 324.536 126.861 324.2 126.269 323.8L127.517 321.112C128.109 321.48 128.805 321.784 129.605 322.024C130.421 322.248 131.221 322.36 132.005 322.36C132.869 322.36 133.477 322.256 133.829 322.048C134.197 321.84 134.381 321.552 134.381 321.184C134.381 320.88 134.237 320.656 133.949 320.512C133.677 320.352 133.309 320.232 132.845 320.152C132.381 320.072 131.869 319.992 131.309 319.912C130.765 319.832 130.213 319.728 129.653 319.6C129.093 319.456 128.581 319.248 128.117 318.976C127.653 318.704 127.277 318.336 126.989 317.872C126.717 317.408 126.581 316.808 126.581 316.072C126.581 315.256 126.813 314.536 127.277 313.912C127.757 313.288 128.445 312.8 129.341 312.448C130.237 312.08 131.309 311.896 132.557 311.896C133.437 311.896 134.333 311.992 135.245 312.184C136.157 312.376 136.917 312.656 137.525 313.024L136.277 315.688C135.653 315.32 135.021 315.072 134.381 314.944C133.757 314.8 133.149 314.728 132.557 314.728C131.725 314.728 131.117 314.84 130.733 315.064C130.349 315.288 130.157 315.576 130.157 315.928C130.157 316.248 130.293 316.488 130.565 316.648C130.853 316.808 131.229 316.936 131.693 317.032C132.157 317.128 132.661 317.216 133.205 317.296C133.765 317.36 134.325 317.464 134.885 317.608C135.445 317.752 135.949 317.96 136.397 318.232C136.861 318.488 137.237 318.848 137.525 319.312C137.813 319.76 137.957 320.352 137.957 321.088C137.957 321.888 137.717 322.6 137.237 323.224C136.757 323.832 136.061 324.312 135.149 324.664C134.253 325.016 133.157 325.192 131.861 325.192ZM147.899 325.192C146.811 325.192 145.859 324.952 145.043 324.472C144.227 323.992 143.587 323.264 143.123 322.288C142.675 321.296 142.451 320.048 142.451 318.544C142.451 317.024 142.667 315.776 143.099 314.8C143.531 313.824 144.155 313.096 144.971 312.616C145.787 312.136 146.763 311.896 147.899 311.896C149.115 311.896 150.203 312.176 151.163 312.736C152.139 313.28 152.907 314.048 153.467 315.04C154.043 316.032 154.331 317.2 154.331 318.544C154.331 319.904 154.043 321.08 153.467 322.072C152.907 323.064 152.139 323.832 151.163 324.376C150.203 324.92 149.115 325.192 147.899 325.192ZM140.267 329.656V312.088H143.843V314.728L143.771 318.568L144.011 322.384V329.656H140.267ZM147.251 322.12C147.875 322.12 148.427 321.976 148.907 321.688C149.403 321.4 149.795 320.992 150.083 320.464C150.387 319.92 150.539 319.28 150.539 318.544C150.539 317.792 150.387 317.152 150.083 316.624C149.795 316.096 149.403 315.688 148.907 315.4C148.427 315.112 147.875 314.968 147.251 314.968C146.627 314.968 146.067 315.112 145.571 315.4C145.075 315.688 144.683 316.096 144.395 316.624C144.107 317.152 143.963 317.792 143.963 318.544C143.963 319.28 144.107 319.92 144.395 320.464C144.683 320.992 145.075 321.4 145.571 321.688C146.067 321.976 146.627 322.12 147.251 322.12ZM156.837 325V312.088H160.581V325H156.837ZM158.709 310.288C158.021 310.288 157.461 310.088 157.029 309.688C156.597 309.288 156.381 308.792 156.381 308.2C156.381 307.608 156.597 307.112 157.029 306.712C157.461 306.312 158.021 306.112 158.709 306.112C159.397 306.112 159.957 306.304 160.389 306.688C160.821 307.056 161.037 307.536 161.037 308.128C161.037 308.752 160.821 309.272 160.389 309.688C159.973 310.088 159.413 310.288 158.709 310.288ZM171.904 311.896C172.928 311.896 173.84 312.104 174.64 312.52C175.456 312.92 176.096 313.544 176.56 314.392C177.024 315.224 177.256 316.296 177.256 317.608V325H173.512V318.184C173.512 317.144 173.28 316.376 172.816 315.88C172.368 315.384 171.728 315.136 170.896 315.136C170.304 315.136 169.768 315.264 169.288 315.52C168.824 315.76 168.456 316.136 168.184 316.648C167.928 317.16 167.8 317.816 167.8 318.616V325H164.056V312.088H167.632V315.664L166.96 314.584C167.424 313.72 168.088 313.056 168.952 312.592C169.816 312.128 170.8 311.896 171.904 311.896Z" fill="#262626"/>
<path d="M95.0878 534V517.2H110.4V534H106.536V519.48L107.424 520.368H98.0638L98.9518 519.48V534H95.0878ZM116.028 538.848C115.356 538.848 114.692 538.744 114.036 538.536C113.38 538.328 112.844 538.04 112.428 537.672L113.796 535.008C114.084 535.264 114.412 535.464 114.78 535.608C115.164 535.752 115.54 535.824 115.908 535.824C116.436 535.824 116.852 535.696 117.156 535.44C117.476 535.2 117.764 534.792 118.02 534.216L118.692 532.632L118.98 532.224L123.612 521.088H127.212L121.38 534.792C120.964 535.832 120.484 536.648 119.94 537.24C119.412 537.832 118.82 538.248 118.164 538.488C117.524 538.728 116.812 538.848 116.028 538.848ZM118.236 534.504L112.476 521.088H116.34L120.804 531.888L118.236 534.504ZM134.811 534.192C133.419 534.192 132.179 533.912 131.091 533.352C130.003 532.776 129.147 531.984 128.523 530.976C127.915 529.968 127.611 528.824 127.611 527.544C127.611 526.248 127.915 525.104 128.523 524.112C129.147 523.104 130.003 522.32 131.091 521.76C132.179 521.184 133.419 520.896 134.811 520.896C136.171 520.896 137.355 521.184 138.363 521.76C139.371 522.32 140.115 523.128 140.595 524.184L137.691 525.744C137.355 525.136 136.931 524.688 136.419 524.4C135.923 524.112 135.379 523.968 134.787 523.968C134.147 523.968 133.571 524.112 133.059 524.4C132.547 524.688 132.139 525.096 131.835 525.624C131.547 526.152 131.403 526.792 131.403 527.544C131.403 528.296 131.547 528.936 131.835 529.464C132.139 529.992 132.547 530.4 133.059 530.688C133.571 530.976 134.147 531.12 134.787 531.12C135.379 531.12 135.923 530.984 136.419 530.712C136.931 530.424 137.355 529.968 137.691 529.344L140.595 530.928C140.115 531.968 139.371 532.776 138.363 533.352C137.355 533.912 136.171 534.192 134.811 534.192ZM145.607 534V523.296L146.447 524.16H141.239V521.088H153.695V524.16H148.487L149.327 523.296V534H145.607ZM161.199 534.192C159.823 534.192 158.599 533.904 157.527 533.328C156.471 532.752 155.631 531.968 155.007 530.976C154.399 529.968 154.095 528.824 154.095 527.544C154.095 526.248 154.399 525.104 155.007 524.112C155.631 523.104 156.471 522.32 157.527 521.76C158.599 521.184 159.823 520.896 161.199 520.896C162.559 520.896 163.775 521.184 164.847 521.76C165.919 522.32 166.759 523.096 167.367 524.088C167.975 525.08 168.279 526.232 168.279 527.544C168.279 528.824 167.975 529.968 167.367 530.976C166.759 531.968 165.919 532.752 164.847 533.328C163.775 533.904 162.559 534.192 161.199 534.192ZM161.199 531.12C161.823 531.12 162.383 530.976 162.879 530.688C163.375 530.4 163.767 529.992 164.055 529.464C164.343 528.92 164.487 528.28 164.487 527.544C164.487 526.792 164.343 526.152 164.055 525.624C163.767 525.096 163.375 524.688 162.879 524.4C162.383 524.112 161.823 523.968 161.199 523.968C160.575 523.968 160.015 524.112 159.519 524.4C159.023 524.688 158.623 525.096 158.319 525.624C158.031 526.152 157.887 526.792 157.887 527.544C157.887 528.28 158.031 528.92 158.319 529.464C158.623 529.992 159.023 530.4 159.519 530.688C160.015 530.976 160.575 531.12 161.199 531.12ZM170.854 534V521.088H174.574V528.768L180.862 521.088H184.294V534H180.574V526.32L174.31 534H170.854ZM177.334 519.696C175.926 519.696 174.87 519.392 174.166 518.784C173.462 518.16 173.102 517.224 173.086 515.976H175.534C175.55 516.52 175.702 516.952 175.99 517.272C176.278 517.592 176.718 517.752 177.31 517.752C177.886 517.752 178.326 517.592 178.63 517.272C178.95 516.952 179.11 516.52 179.11 515.976H181.606C181.606 517.224 181.246 518.16 180.526 518.784C179.806 519.392 178.742 519.696 177.334 519.696ZM200.834 534.192C199.442 534.192 198.202 533.912 197.114 533.352C196.026 532.776 195.17 531.984 194.546 530.976C193.938 529.968 193.634 528.824 193.634 527.544C193.634 526.248 193.938 525.104 194.546 524.112C195.17 523.104 196.026 522.32 197.114 521.76C198.202 521.184 199.442 520.896 200.834 520.896C202.194 520.896 203.378 521.184 204.386 521.76C205.394 522.32 206.138 523.128 206.618 524.184L203.714 525.744C203.378 525.136 202.954 524.688 202.442 524.4C201.946 524.112 201.402 523.968 200.81 523.968C200.17 523.968 199.594 524.112 199.082 524.4C198.57 524.688 198.162 525.096 197.858 525.624C197.57 526.152 197.426 526.792 197.426 527.544C197.426 528.296 197.57 528.936 197.858 529.464C198.162 529.992 198.57 530.4 199.082 530.688C199.594 530.976 200.17 531.12 200.81 531.12C201.402 531.12 201.946 530.984 202.442 530.712C202.954 530.424 203.378 529.968 203.714 529.344L206.618 530.928C206.138 531.968 205.394 532.776 204.386 533.352C203.378 533.912 202.194 534.192 200.834 534.192ZM215.041 534.192C213.569 534.192 212.273 533.904 211.153 533.328C210.049 532.752 209.193 531.968 208.585 530.976C207.977 529.968 207.673 528.824 207.673 527.544C207.673 526.248 207.969 525.104 208.561 524.112C209.169 523.104 209.993 522.32 211.033 521.76C212.073 521.184 213.249 520.896 214.561 520.896C215.825 520.896 216.961 521.168 217.969 521.712C218.993 522.24 219.801 523.008 220.393 524.016C220.985 525.008 221.281 526.2 221.281 527.592C221.281 527.736 221.273 527.904 221.257 528.096C221.241 528.272 221.225 528.44 221.209 528.6H210.721V526.416H219.241L217.801 527.064C217.801 526.392 217.665 525.808 217.393 525.312C217.121 524.816 216.745 524.432 216.265 524.16C215.785 523.872 215.225 523.728 214.585 523.728C213.945 523.728 213.377 523.872 212.881 524.16C212.401 524.432 212.025 524.824 211.753 525.336C211.481 525.832 211.345 526.424 211.345 527.112V527.688C211.345 528.392 211.497 529.016 211.801 529.56C212.121 530.088 212.561 530.496 213.121 530.784C213.697 531.056 214.369 531.192 215.137 531.192C215.825 531.192 216.425 531.088 216.937 530.88C217.465 530.672 217.945 530.36 218.377 529.944L220.369 532.104C219.777 532.776 219.033 533.296 218.137 533.664C217.241 534.016 216.209 534.192 215.041 534.192ZM233.295 534L228.975 527.88L232.023 526.08L237.711 534H233.295ZM224.151 534V521.088H227.895V534H224.151ZM226.791 529.104V526.104H231.303V529.104H226.791ZM232.383 527.976L228.879 527.592L233.415 521.088H237.399L232.383 527.976ZM242.193 534V523.296L243.033 524.16H237.825V521.088H250.281V524.16H245.073L245.913 523.296V534H242.193ZM257.785 534.192C256.409 534.192 255.185 533.904 254.113 533.328C253.057 532.752 252.217 531.968 251.593 530.976C250.985 529.968 250.681 528.824 250.681 527.544C250.681 526.248 250.985 525.104 251.593 524.112C252.217 523.104 253.057 522.32 254.113 521.76C255.185 521.184 256.409 520.896 257.785 520.896C259.145 520.896 260.361 521.184 261.433 521.76C262.505 522.32 263.345 523.096 263.953 524.088C264.561 525.08 264.865 526.232 264.865 527.544C264.865 528.824 264.561 529.968 263.953 530.976C263.345 531.968 262.505 532.752 261.433 533.328C260.361 533.904 259.145 534.192 257.785 534.192ZM257.785 531.12C258.409 531.12 258.969 530.976 259.465 530.688C259.961 530.4 260.353 529.992 260.641 529.464C260.929 528.92 261.073 528.28 261.073 527.544C261.073 526.792 260.929 526.152 260.641 525.624C260.353 525.096 259.961 524.688 259.465 524.4C258.969 524.112 258.409 523.968 257.785 523.968C257.161 523.968 256.601 524.112 256.105 524.4C255.609 524.688 255.209 525.096 254.905 525.624C254.617 526.152 254.473 526.792 254.473 527.544C254.473 528.28 254.617 528.92 254.905 529.464C255.209 529.992 255.609 530.4 256.105 530.688C256.601 530.976 257.161 531.12 257.785 531.12ZM275.048 534.192C273.96 534.192 273.008 533.952 272.192 533.472C271.376 532.992 270.736 532.264 270.272 531.288C269.824 530.296 269.6 529.048 269.6 527.544C269.6 526.024 269.816 524.776 270.248 523.8C270.68 522.824 271.304 522.096 272.12 521.616C272.936 521.136 273.912 520.896 275.048 520.896C276.264 520.896 277.352 521.176 278.312 521.736C279.288 522.28 280.056 523.048 280.616 524.04C281.192 525.032 281.48 526.2 281.48 527.544C281.48 528.904 281.192 530.08 280.616 531.072C280.056 532.064 279.288 532.832 278.312 533.376C277.352 533.92 276.264 534.192 275.048 534.192ZM267.416 538.656V521.088H270.992V523.728L270.92 527.568L271.16 531.384V538.656H267.416ZM274.4 531.12C275.024 531.12 275.576 530.976 276.056 530.688C276.552 530.4 276.944 529.992 277.232 529.464C277.536 528.92 277.688 528.28 277.688 527.544C277.688 526.792 277.536 526.152 277.232 525.624C276.944 525.096 276.552 524.688 276.056 524.4C275.576 524.112 275.024 523.968 274.4 523.968C273.776 523.968 273.216 524.112 272.72 524.4C272.224 524.688 271.832 525.096 271.544 525.624C271.256 526.152 271.112 526.792 271.112 527.544C271.112 528.28 271.256 528.92 271.544 529.464C271.832 529.992 272.224 530.4 272.72 530.688C273.216 530.976 273.776 531.12 274.4 531.12Z" fill="#262626"/>
<path d="M460.528 154V138.64L462.208 140.32H457.168V137.2H464.416V154H460.528ZM474.534 154.288C473.158 154.288 471.926 153.952 470.838 153.28C469.75 152.592 468.894 151.6 468.27 150.304C467.646 149.008 467.334 147.44 467.334 145.6C467.334 143.76 467.646 142.192 468.27 140.896C468.894 139.6 469.75 138.616 470.838 137.944C471.926 137.256 473.158 136.912 474.534 136.912C475.926 136.912 477.158 137.256 478.23 137.944C479.318 138.616 480.174 139.6 480.798 140.896C481.422 142.192 481.734 143.76 481.734 145.6C481.734 147.44 481.422 149.008 480.798 150.304C480.174 151.6 479.318 152.592 478.23 153.28C477.158 153.952 475.926 154.288 474.534 154.288ZM474.534 151C475.19 151 475.758 150.816 476.238 150.448C476.734 150.08 477.118 149.496 477.39 148.696C477.678 147.896 477.822 146.864 477.822 145.6C477.822 144.336 477.678 143.304 477.39 142.504C477.118 141.704 476.734 141.12 476.238 140.752C475.758 140.384 475.19 140.2 474.534 140.2C473.894 140.2 473.326 140.384 472.83 140.752C472.35 141.12 471.966 141.704 471.678 142.504C471.406 143.304 471.27 144.336 471.27 145.6C471.27 146.864 471.406 147.896 471.678 148.696C471.966 149.496 472.35 150.08 472.83 150.448C473.326 150.816 473.894 151 474.534 151ZM490.823 154.288C489.447 154.288 488.215 153.952 487.127 153.28C486.039 152.592 485.183 151.6 484.559 150.304C483.935 149.008 483.623 147.44 483.623 145.6C483.623 143.76 483.935 142.192 484.559 140.896C485.183 139.6 486.039 138.616 487.127 137.944C488.215 137.256 489.447 136.912 490.823 136.912C492.215 136.912 493.447 137.256 494.519 137.944C495.607 138.616 496.463 139.6 497.087 140.896C497.711 142.192 498.023 143.76 498.023 145.6C498.023 147.44 497.711 149.008 497.087 150.304C496.463 151.6 495.607 152.592 494.519 153.28C493.447 153.952 492.215 154.288 490.823 154.288ZM490.823 151C491.479 151 492.047 150.816 492.527 150.448C493.023 150.08 493.407 149.496 493.679 148.696C493.967 147.896 494.111 146.864 494.111 145.6C494.111 144.336 493.967 143.304 493.679 142.504C493.407 141.704 493.023 141.12 492.527 140.752C492.047 140.384 491.479 140.2 490.823 140.2C490.183 140.2 489.615 140.384 489.119 140.752C488.639 141.12 488.255 141.704 487.967 142.504C487.695 143.304 487.559 144.336 487.559 145.6C487.559 146.864 487.695 147.896 487.967 148.696C488.255 149.496 488.639 150.08 489.119 150.448C489.615 150.816 490.183 151 490.823 151ZM513.621 154.192C512.245 154.192 511.021 153.904 509.949 153.328C508.893 152.752 508.053 151.968 507.429 150.976C506.821 149.968 506.517 148.824 506.517 147.544C506.517 146.248 506.821 145.104 507.429 144.112C508.053 143.104 508.893 142.32 509.949 141.76C511.021 141.184 512.245 140.896 513.621 140.896C514.981 140.896 516.197 141.184 517.269 141.76C518.341 142.32 519.181 143.096 519.789 144.088C520.397 145.08 520.701 146.232 520.701 147.544C520.701 148.824 520.397 149.968 519.789 150.976C519.181 151.968 518.341 152.752 517.269 153.328C516.197 153.904 514.981 154.192 513.621 154.192ZM513.621 151.12C514.245 151.12 514.805 150.976 515.301 150.688C515.797 150.4 516.189 149.992 516.477 149.464C516.765 148.92 516.909 148.28 516.909 147.544C516.909 146.792 516.765 146.152 516.477 145.624C516.189 145.096 515.797 144.688 515.301 144.4C514.805 144.112 514.245 143.968 513.621 143.968C512.997 143.968 512.437 144.112 511.941 144.4C511.445 144.688 511.045 145.096 510.741 145.624C510.453 146.152 510.309 146.792 510.309 147.544C510.309 148.28 510.453 148.92 510.741 149.464C511.045 149.992 511.445 150.4 511.941 150.688C512.437 150.976 512.997 151.12 513.621 151.12ZM523.276 154V141.088H536.116V154H532.372V143.32L533.212 144.16H526.156L526.996 143.32V154H523.276ZM553.002 154V141.088H556.722V154H553.002ZM546.498 145.216C548.194 145.232 549.466 145.616 550.314 146.368C551.178 147.104 551.61 148.152 551.61 149.512C551.61 150.936 551.122 152.048 550.146 152.848C549.17 153.632 547.786 154.024 545.994 154.024L539.706 154V141.088H543.426V145.216H546.498ZM545.658 151.36C546.378 151.376 546.93 151.224 547.314 150.904C547.698 150.584 547.89 150.104 547.89 149.464C547.89 148.824 547.698 148.368 547.314 148.096C546.93 147.808 546.378 147.656 545.658 147.64L543.426 147.616V151.36H545.658ZM563.091 154V143.296L563.931 144.16H558.723V141.088H571.179V144.16H565.971L566.811 143.296V154H563.091ZM580.903 154V151.48L580.663 150.928V146.416C580.663 145.616 580.415 144.992 579.919 144.544C579.439 144.096 578.695 143.872 577.687 143.872C576.999 143.872 576.319 143.984 575.647 144.208C574.991 144.416 574.431 144.704 573.967 145.072L572.623 142.456C573.327 141.96 574.175 141.576 575.167 141.304C576.159 141.032 577.167 140.896 578.191 140.896C580.159 140.896 581.687 141.36 582.775 142.288C583.863 143.216 584.407 144.664 584.407 146.632V154H580.903ZM576.967 154.192C575.959 154.192 575.095 154.024 574.375 153.688C573.655 153.336 573.103 152.864 572.719 152.272C572.335 151.68 572.143 151.016 572.143 150.28C572.143 149.512 572.327 148.84 572.695 148.264C573.079 147.688 573.679 147.24 574.495 146.92C575.311 146.584 576.375 146.416 577.687 146.416H581.119V148.6H578.095C577.215 148.6 576.607 148.744 576.271 149.032C575.951 149.32 575.791 149.68 575.791 150.112C575.791 150.592 575.975 150.976 576.343 151.264C576.727 151.536 577.247 151.672 577.903 151.672C578.527 151.672 579.087 151.528 579.583 151.24C580.079 150.936 580.439 150.496 580.663 149.92L581.239 151.648C580.967 152.48 580.471 153.112 579.751 153.544C579.031 153.976 578.103 154.192 576.967 154.192Z" fill="#262626"/>
<path d="M546.384 325.288C545.216 325.288 544.056 325.136 542.904 324.832C541.752 324.512 540.776 324.064 539.976 323.488L541.488 320.512C542.128 320.976 542.872 321.344 543.72 321.616C544.568 321.888 545.424 322.024 546.288 322.024C547.264 322.024 548.032 321.832 548.592 321.448C549.152 321.064 549.432 320.536 549.432 319.864C549.432 319.224 549.184 318.72 548.688 318.352C548.192 317.984 547.392 317.8 546.288 317.8H544.512V315.232L549.192 309.928L549.624 311.32H540.816V308.2H552.576V310.72L547.92 316.024L545.952 314.896H547.08C549.144 314.896 550.704 315.36 551.76 316.288C552.816 317.216 553.344 318.408 553.344 319.864C553.344 320.808 553.096 321.696 552.6 322.528C552.104 323.344 551.344 324.008 550.32 324.52C549.296 325.032 547.984 325.288 546.384 325.288ZM562.339 325.288C560.963 325.288 559.731 324.952 558.643 324.28C557.555 323.592 556.699 322.6 556.075 321.304C555.451 320.008 555.139 318.44 555.139 316.6C555.139 314.76 555.451 313.192 556.075 311.896C556.699 310.6 557.555 309.616 558.643 308.944C559.731 308.256 560.963 307.912 562.339 307.912C563.731 307.912 564.963 308.256 566.035 308.944C567.123 309.616 567.979 310.6 568.603 311.896C569.227 313.192 569.539 314.76 569.539 316.6C569.539 318.44 569.227 320.008 568.603 321.304C567.979 322.6 567.123 323.592 566.035 324.28C564.963 324.952 563.731 325.288 562.339 325.288ZM562.339 322C562.995 322 563.563 321.816 564.043 321.448C564.539 321.08 564.923 320.496 565.195 319.696C565.483 318.896 565.627 317.864 565.627 316.6C565.627 315.336 565.483 314.304 565.195 313.504C564.923 312.704 564.539 312.12 564.043 311.752C563.563 311.384 562.995 311.2 562.339 311.2C561.699 311.2 561.131 311.384 560.635 311.752C560.155 312.12 559.771 312.704 559.483 313.504C559.211 314.304 559.075 315.336 559.075 316.6C559.075 317.864 559.211 318.896 559.483 319.696C559.771 320.496 560.155 321.08 560.635 321.448C561.131 321.816 561.699 322 562.339 322ZM578.628 325.288C577.252 325.288 576.02 324.952 574.932 324.28C573.844 323.592 572.988 322.6 572.364 321.304C571.74 320.008 571.428 318.44 571.428 316.6C571.428 314.76 571.74 313.192 572.364 311.896C572.988 310.6 573.844 309.616 574.932 308.944C576.02 308.256 577.252 307.912 578.628 307.912C580.02 307.912 581.252 308.256 582.324 308.944C583.412 309.616 584.268 310.6 584.892 311.896C585.516 313.192 585.828 314.76 585.828 316.6C585.828 318.44 585.516 320.008 584.892 321.304C584.268 322.6 583.412 323.592 582.324 324.28C581.252 324.952 580.02 325.288 578.628 325.288ZM578.628 322C579.284 322 579.852 321.816 580.332 321.448C580.828 321.08 581.212 320.496 581.484 319.696C581.772 318.896 581.916 317.864 581.916 316.6C581.916 315.336 581.772 314.304 581.484 313.504C581.212 312.704 580.828 312.12 580.332 311.752C579.852 311.384 579.284 311.2 578.628 311.2C577.988 311.2 577.42 311.384 576.924 311.752C576.444 312.12 576.06 312.704 575.772 313.504C575.5 314.304 575.364 315.336 575.364 316.6C575.364 317.864 575.5 318.896 575.772 319.696C576.06 320.496 576.444 321.08 576.924 321.448C577.42 321.816 577.988 322 578.628 322ZM601.426 325.192C600.05 325.192 598.826 324.904 597.754 324.328C596.698 323.752 595.858 322.968 595.234 321.976C594.626 320.968 594.322 319.824 594.322 318.544C594.322 317.248 594.626 316.104 595.234 315.112C595.858 314.104 596.698 313.32 597.754 312.76C598.826 312.184 600.05 311.896 601.426 311.896C602.786 311.896 604.002 312.184 605.074 312.76C606.146 313.32 606.986 314.096 607.594 315.088C608.202 316.08 608.506 317.232 608.506 318.544C608.506 319.824 608.202 320.968 607.594 321.976C606.986 322.968 606.146 323.752 605.074 324.328C604.002 324.904 602.786 325.192 601.426 325.192ZM601.426 322.12C602.05 322.12 602.61 321.976 603.106 321.688C603.602 321.4 603.994 320.992 604.282 320.464C604.57 319.92 604.714 319.28 604.714 318.544C604.714 317.792 604.57 317.152 604.282 316.624C603.994 316.096 603.602 315.688 603.106 315.4C602.61 315.112 602.05 314.968 601.426 314.968C600.802 314.968 600.242 315.112 599.746 315.4C599.25 315.688 598.85 316.096 598.546 316.624C598.258 317.152 598.114 317.792 598.114 318.544C598.114 319.28 598.258 319.92 598.546 320.464C598.85 320.992 599.25 321.4 599.746 321.688C600.242 321.976 600.802 322.12 601.426 322.12ZM611.081 325V312.088H623.921V325H620.177V314.32L621.017 315.16H613.961L614.801 314.32V325H611.081ZM640.807 325V312.088H644.527V325H640.807ZM634.303 316.216C635.999 316.232 637.271 316.616 638.119 317.368C638.983 318.104 639.415 319.152 639.415 320.512C639.415 321.936 638.927 323.048 637.951 323.848C636.975 324.632 635.591 325.024 633.799 325.024L627.511 325V312.088H631.231V316.216H634.303ZM633.463 322.36C634.183 322.376 634.735 322.224 635.119 321.904C635.503 321.584 635.695 321.104 635.695 320.464C635.695 319.824 635.503 319.368 635.119 319.096C634.735 318.808 634.183 318.656 633.463 318.64L631.231 318.616V322.36H633.463ZM650.896 325V314.296L651.736 315.16H646.528V312.088H658.984V315.16H653.776L654.616 314.296V325H650.896ZM668.707 325V322.48L668.467 321.928V317.416C668.467 316.616 668.219 315.992 667.723 315.544C667.243 315.096 666.499 314.872 665.491 314.872C664.803 314.872 664.123 314.984 663.451 315.208C662.795 315.416 662.235 315.704 661.771 316.072L660.427 313.456C661.131 312.96 661.979 312.576 662.971 312.304C663.963 312.032 664.971 311.896 665.995 311.896C667.963 311.896 669.491 312.36 670.579 313.288C671.667 314.216 672.211 315.664 672.211 317.632V325H668.707ZM664.771 325.192C663.763 325.192 662.899 325.024 662.179 324.688C661.459 324.336 660.907 323.864 660.523 323.272C660.139 322.68 659.947 322.016 659.947 321.28C659.947 320.512 660.131 319.84 660.499 319.264C660.883 318.688 661.483 318.24 662.299 317.92C663.115 317.584 664.179 317.416 665.491 317.416H668.923V319.6H665.899C665.019 319.6 664.411 319.744 664.075 320.032C663.755 320.32 663.595 320.68 663.595 321.112C663.595 321.592 663.779 321.976 664.147 322.264C664.531 322.536 665.051 322.672 665.707 322.672C666.331 322.672 666.891 322.528 667.387 322.24C667.883 321.936 668.243 321.496 668.467 320.92L669.043 322.648C668.771 323.48 668.275 324.112 667.555 324.544C666.835 324.976 665.907 325.192 664.771 325.192Z" fill="#262626"/>
<path d="M517.072 534L522.856 526.416L522.784 528.48L517.24 521.088H521.44L524.944 525.912L523.36 525.96L526.984 521.088H530.968L525.4 528.408V526.392L531.16 534H526.912L523.24 528.864L524.8 529.08L521.152 534H517.072ZM532.182 534V531.48L538.662 525.36C539.174 524.896 539.55 524.48 539.79 524.112C540.03 523.744 540.19 523.408 540.27 523.104C540.366 522.8 540.414 522.52 540.414 522.264C540.414 521.592 540.182 521.08 539.718 520.728C539.27 520.36 538.606 520.176 537.726 520.176C537.022 520.176 536.366 520.312 535.758 520.584C535.166 520.856 534.662 521.28 534.246 521.856L531.414 520.032C532.054 519.072 532.95 518.312 534.102 517.752C535.254 517.192 536.582 516.912 538.086 516.912C539.334 516.912 540.422 517.12 541.35 517.536C542.294 517.936 543.022 518.504 543.534 519.24C544.062 519.976 544.326 520.856 544.326 521.88C544.326 522.424 544.254 522.968 544.11 523.512C543.982 524.04 543.71 524.6 543.294 525.192C542.894 525.784 542.302 526.448 541.518 527.184L536.142 532.248L535.398 530.832H544.878V534H532.182ZM563.288 534L558.968 527.88L562.016 526.08L567.704 534H563.288ZM554.144 534V521.088H557.888V534H554.144ZM556.784 529.104V526.104H561.296V529.104H556.784ZM562.376 527.976L558.872 527.592L563.408 521.088H567.392L562.376 527.976ZM582.387 534.192C581.011 534.192 579.787 533.904 578.715 533.328C577.659 532.752 576.819 531.968 576.195 530.976C575.587 529.968 575.283 528.824 575.283 527.544C575.283 526.248 575.587 525.104 576.195 524.112C576.819 523.104 577.659 522.32 578.715 521.76C579.787 521.184 581.011 520.896 582.387 520.896C583.747 520.896 584.963 521.184 586.035 521.76C587.107 522.32 587.947 523.096 588.555 524.088C589.163 525.08 589.467 526.232 589.467 527.544C589.467 528.824 589.163 529.968 588.555 530.976C587.947 531.968 587.107 532.752 586.035 533.328C584.963 533.904 583.747 534.192 582.387 534.192ZM582.387 531.12C583.011 531.12 583.571 530.976 584.067 530.688C584.563 530.4 584.955 529.992 585.243 529.464C585.531 528.92 585.675 528.28 585.675 527.544C585.675 526.792 585.531 526.152 585.243 525.624C584.955 525.096 584.563 524.688 584.067 524.4C583.571 524.112 583.011 523.968 582.387 523.968C581.763 523.968 581.203 524.112 580.707 524.4C580.211 524.688 579.811 525.096 579.507 525.624C579.219 526.152 579.075 526.792 579.075 527.544C579.075 528.28 579.219 528.92 579.507 529.464C579.811 529.992 580.211 530.4 580.707 530.688C581.203 530.976 581.763 531.12 582.387 531.12ZM592.042 534V521.088H604.882V534H601.138V523.32L601.978 524.16H594.922L595.762 523.32V534H592.042ZM621.768 534V521.088H625.488V534H621.768ZM615.264 525.216C616.96 525.232 618.232 525.616 619.08 526.368C619.944 527.104 620.376 528.152 620.376 529.512C620.376 530.936 619.888 532.048 618.912 532.848C617.936 533.632 616.552 534.024 614.76 534.024L608.472 534V521.088H612.192V525.216H615.264ZM614.424 531.36C615.144 531.376 615.696 531.224 616.08 530.904C616.464 530.584 616.656 530.104 616.656 529.464C616.656 528.824 616.464 528.368 616.08 528.096C615.696 527.808 615.144 527.656 614.424 527.64L612.192 527.616V531.36H614.424ZM631.857 534V523.296L632.697 524.16H627.489V521.088H639.945V524.16H634.737L635.577 523.296V534H631.857ZM643.763 538.848C643.091 538.848 642.427 538.744 641.771 538.536C641.115 538.328 640.579 538.04 640.163 537.672L641.531 535.008C641.819 535.264 642.147 535.464 642.515 535.608C642.899 535.752 643.275 535.824 643.643 535.824C644.171 535.824 644.587 535.696 644.891 535.44C645.211 535.2 645.499 534.792 645.755 534.216L646.427 532.632L646.715 532.224L651.347 521.088H654.947L649.115 534.792C648.699 535.832 648.219 536.648 647.675 537.24C647.147 537.832 646.555 538.248 645.899 538.488C645.259 538.728 644.547 538.848 643.763 538.848ZM645.971 534.504L640.211 521.088H644.075L648.539 531.888L645.971 534.504ZM518.8 569V556.088H522.52V561.128H528.136V556.088H531.88V569H528.136V564.176H522.52V569H518.8ZM543.192 569V566.48L542.952 565.928V561.416C542.952 560.616 542.704 559.992 542.208 559.544C541.728 559.096 540.984 558.872 539.976 558.872C539.288 558.872 538.608 558.984 537.936 559.208C537.28 559.416 536.72 559.704 536.256 560.072L534.912 557.456C535.616 556.96 536.464 556.576 537.456 556.304C538.448 556.032 539.456 555.896 540.48 555.896C542.448 555.896 543.976 556.36 545.064 557.288C546.152 558.216 546.696 559.664 546.696 561.632V569H543.192ZM539.256 569.192C538.248 569.192 537.384 569.024 536.664 568.688C535.944 568.336 535.392 567.864 535.008 567.272C534.624 566.68 534.432 566.016 534.432 565.28C534.432 564.512 534.616 563.84 534.984 563.264C535.368 562.688 535.968 562.24 536.784 561.92C537.6 561.584 538.664 561.416 539.976 561.416H543.408V563.6H540.384C539.504 563.6 538.896 563.744 538.56 564.032C538.24 564.32 538.08 564.68 538.08 565.112C538.08 565.592 538.264 565.976 538.632 566.264C539.016 566.536 539.536 566.672 540.192 566.672C540.816 566.672 541.376 566.528 541.872 566.24C542.368 565.936 542.728 565.496 542.952 564.92L543.528 566.648C543.256 567.48 542.76 568.112 542.04 568.544C541.32 568.976 540.392 569.192 539.256 569.192ZM558.473 569V553.64L560.153 555.32H555.113V552.2H562.361V569H558.473ZM581.076 564.056C580.548 564.344 579.964 564.576 579.324 564.752C578.684 564.928 577.98 565.016 577.212 565.016C575.516 565.016 574.212 564.632 573.3 563.864C572.388 563.08 571.932 561.84 571.932 560.144V556.088H575.676V559.904C575.676 560.704 575.884 561.28 576.3 561.632C576.716 561.968 577.3 562.136 578.052 562.136C578.596 562.136 579.116 562.072 579.612 561.944C580.124 561.816 580.612 561.632 581.076 561.392V564.056ZM580.812 569V556.088H584.556V569H580.812ZM595.879 569V566.48L595.639 565.928V561.416C595.639 560.616 595.391 559.992 594.895 559.544C594.415 559.096 593.671 558.872 592.663 558.872C591.975 558.872 591.295 558.984 590.623 559.208C589.967 559.416 589.407 559.704 588.943 560.072L587.599 557.456C588.303 556.96 589.151 556.576 590.143 556.304C591.135 556.032 592.143 555.896 593.167 555.896C595.135 555.896 596.663 556.36 597.751 557.288C598.839 558.216 599.383 559.664 599.383 561.632V569H595.879ZM591.943 569.192C590.935 569.192 590.071 569.024 589.351 568.688C588.631 568.336 588.079 567.864 587.695 567.272C587.311 566.68 587.119 566.016 587.119 565.28C587.119 564.512 587.303 563.84 587.671 563.264C588.055 562.688 588.655 562.24 589.471 561.92C590.287 561.584 591.351 561.416 592.663 561.416H596.095V563.6H593.071C592.191 563.6 591.583 563.744 591.247 564.032C590.927 564.32 590.767 564.68 590.767 565.112C590.767 565.592 590.951 565.976 591.319 566.264C591.703 566.536 592.223 566.672 592.879 566.672C593.503 566.672 594.063 566.528 594.559 566.24C595.055 565.936 595.415 565.496 595.639 564.92L596.215 566.648C595.943 567.48 595.447 568.112 594.727 568.544C594.007 568.976 593.079 569.192 591.943 569.192ZM608.78 569.192C607.388 569.192 606.148 568.912 605.06 568.352C603.972 567.776 603.116 566.984 602.492 565.976C601.884 564.968 601.58 563.824 601.58 562.544C601.58 561.248 601.884 560.104 602.492 559.112C603.116 558.104 603.972 557.32 605.06 556.76C606.148 556.184 607.388 555.896 608.78 555.896C610.14 555.896 611.324 556.184 612.332 556.76C613.34 557.32 614.084 558.128 614.564 559.184L611.66 560.744C611.324 560.136 610.9 559.688 610.388 559.4C609.892 559.112 609.348 558.968 608.756 558.968C608.116 558.968 607.54 559.112 607.028 559.4C606.516 559.688 606.108 560.096 605.804 560.624C605.516 561.152 605.372 561.792 605.372 562.544C605.372 563.296 605.516 563.936 605.804 564.464C606.108 564.992 606.516 565.4 607.028 565.688C607.54 565.976 608.116 566.12 608.756 566.12C609.348 566.12 609.892 565.984 610.388 565.712C610.9 565.424 611.324 564.968 611.66 564.344L614.564 565.928C614.084 566.968 613.34 567.776 612.332 568.352C611.324 568.912 610.14 569.192 608.78 569.192Z" fill="#262626"/>
</svg>
