
<svg width="32" height="32" viewBox="0 0 32 32" fill="none" xmlns="http://www.w3.org/2000/svg">
    <rect width="32.0003" height="31.3702" transform="translate(0.00585938 0.40625)" fill="#2C2C2C"/>
    <path d="M28.0099 16.6016C28.0727 16.8158 28.1448 17.0629 28.2263 17.3428C28.3735 17.8493 28.2873 18.2998 27.9677 18.6944C27.6943 19.032 27.3419 19.146 26.9105 19.0363C26.7223 18.9887 26.6054 18.8416 26.4496 18.7334C26.4106 18.7067 26.3893 18.7168 26.3857 18.7637C26.3785 18.8524 26.3904 18.94 26.4214 19.0266C26.4353 19.0647 26.4337 19.1067 26.4171 19.1435C26.376 19.2329 26.3201 19.2495 26.2494 19.1933C25.9515 18.953 25.6481 18.7088 25.3394 18.4607C25.3232 18.4479 25.3113 18.4305 25.3054 18.4108C25.2994 18.3911 25.2996 18.37 25.3059 18.3503C25.3122 18.3306 25.3244 18.3133 25.3408 18.3005C25.3572 18.2877 25.3771 18.2802 25.3978 18.2789L25.6348 18.2659C25.7632 18.2587 25.7751 18.2175 25.6705 18.1425C25.203 17.8092 25.1031 17.3749 25.3708 16.8396C25.3491 16.9846 25.4476 17.0052 25.6662 16.9013C25.7715 16.8515 25.8638 16.8248 25.9432 16.8212C26.1019 16.814 26.2656 16.8021 26.4344 16.7855C26.4481 16.7841 26.4572 16.7761 26.4615 16.7617C26.468 16.7415 26.4813 16.7314 26.5015 16.7314C26.7554 16.7321 27.0094 16.7318 27.2633 16.7303C27.4501 16.7296 27.699 16.6867 28.0099 16.6016Z" fill="#DDC779"/>
    <path d="M29.1017 14.7993L31.9183 18.0371C32.0518 18.19 32.0341 18.2102 31.8653 18.0977C31.62 17.9324 31.3737 17.755 31.1263 17.5652C29.7311 16.4947 28.3966 15.4208 27.1226 14.3438C26.6628 13.9564 26.2419 14.1273 25.9129 14.5288C24.6873 16.0236 23.4242 17.5627 22.1235 19.1462C21.1551 20.3247 20.138 21.4955 19.2247 22.6891C18.9564 23.0397 18.9416 23.0293 19.1804 22.6577C20.3273 20.8766 21.5475 19.0135 22.8409 17.0685C22.9008 17.1479 22.9625 17.1825 23.026 17.1724C23.0584 17.1674 23.1151 17.1465 23.1959 17.1097C23.2593 17.0801 23.3012 17.0368 23.3214 16.9798C23.3336 16.9459 23.3528 16.9174 23.3787 16.8943C23.562 16.7313 23.7138 16.5581 23.8343 16.3749C23.9605 16.183 24.0785 16.0337 24.1881 15.9269C24.2869 15.8302 24.371 15.7242 24.4402 15.6088C24.7248 15.1337 25.1663 14.7604 25.4173 14.268C25.5147 14.0754 25.6662 13.9098 25.7387 13.7053C25.8675 13.346 26.5459 13.333 26.8337 13.3774C26.8698 13.3832 26.9015 13.3983 26.929 13.4229C27.338 13.7854 27.7481 14.1977 28.2058 14.4985C28.3537 14.5952 28.4951 14.7041 28.6299 14.8253C28.7093 14.8967 28.8135 14.9375 28.9427 14.9476C29.048 14.9555 29.101 14.9061 29.1017 14.7993Z" fill="#E1D49E"/>
    <path d="M29.1006 14.7988C29.0999 14.9056 29.0469 14.955 28.9416 14.9471C28.8124 14.937 28.7082 14.8962 28.6288 14.8248C28.4939 14.7036 28.3526 14.5946 28.2047 14.498C27.747 14.1971 27.3369 13.7849 26.9279 13.4223C26.9004 13.3978 26.8687 13.3827 26.8326 13.3769C26.5448 13.3325 25.8664 13.3455 25.7376 13.7048C25.6651 13.9093 25.5136 14.0749 25.4162 14.2675C25.1652 14.7599 24.7237 15.1332 24.4391 15.6082C24.3699 15.7237 24.2858 15.8297 24.187 15.9264C24.0774 16.0332 23.9594 16.1825 23.8332 16.3744C23.7127 16.5576 23.5609 16.7308 23.3776 16.8938C23.3517 16.9169 23.3325 16.9454 23.3203 16.9793C23.3001 17.0363 23.2582 17.0796 23.1948 17.1092C23.114 17.1459 23.0573 17.1669 23.0249 17.1719C22.9614 17.182 22.8997 17.1474 22.8398 17.068C23.7538 15.693 24.6746 14.3216 25.6023 12.9538C25.8418 12.6003 26.0269 12.381 26.1574 12.2959C26.4763 12.0888 26.8056 12.1682 27.1453 12.5339C27.5298 12.948 28.1816 13.703 29.1006 14.7988Z" fill="#FAF2BF"/>
    <path d="M9.03306 22.4503C6.18076 21.2102 3.441 19.9322 0.641719 18.6758C0.317102 18.5297 -0.084341 18.2159 0.0238646 17.8145C0.0664255 17.655 0.136399 17.5115 0.233784 17.3838C0.455244 17.0916 0.690412 16.798 0.939285 16.5029C2.26516 14.9317 3.58563 13.3561 4.90069 11.7762C4.94181 11.7264 4.96525 11.6994 4.97103 11.695C5.0612 11.6301 5.08031 11.6467 5.02837 11.7448C4.06895 13.5635 3.08103 15.3414 2.06462 17.0786C1.99537 17.1976 1.94668 17.3524 1.90015 17.4822C1.88861 17.5162 1.88825 17.5504 1.89907 17.585C1.98419 17.8606 2.13135 18.0583 2.34055 18.1781C4.59339 19.4744 6.78455 20.747 8.91404 21.9958C9.96291 22.6112 10.9779 23.1923 11.9589 23.7391C11.969 23.7449 11.9716 23.7528 11.9665 23.7629H11.9654C11.9589 23.7766 11.9488 23.7802 11.9351 23.7737C10.8423 23.2572 9.8749 22.816 9.03306 22.4503Z" fill="#E1D49E"/>
    <path d="M12.7281 13.7137C12.5333 13.7519 12.5286 13.8075 12.714 13.8803C12.8316 13.9258 12.9502 13.9593 13.07 13.981C13.1739 13.9997 13.2161 14.0585 13.1966 14.1574C13.1887 14.1949 13.1674 14.2216 13.1327 14.2374C12.7641 14.4091 12.433 14.5967 12.1394 14.8001C12.1294 14.807 12.1177 14.8111 12.1056 14.8121C12.0934 14.813 12.0813 14.8107 12.0703 14.8054C12.0593 14.8002 12.0499 14.7921 12.0431 14.7821C12.0362 14.772 12.0321 14.7603 12.0312 14.7482C12.0204 14.5837 12.0438 14.4181 12.1015 14.2515C12.1607 14.082 12.1196 14.0527 11.9782 14.1638C11.87 14.2504 11.8072 14.3489 11.6763 14.4073C11.2269 14.6079 10.8583 14.5487 10.5704 14.2299C10.2112 13.8338 10.2675 13.244 10.6332 12.8675C10.6492 12.8507 10.6582 12.8286 10.6584 12.8054C10.6586 12.7823 10.65 12.76 10.6343 12.743C10.3991 12.4905 10.3439 12.2038 10.4687 11.8827C10.6606 11.3857 11.0343 11.1779 11.5897 11.2594C11.8949 11.3038 12.108 11.5462 12.2336 11.8102C12.2423 11.8288 12.2567 11.8442 12.2745 11.8541C12.2924 11.864 12.3129 11.868 12.3331 11.8654C13.11 11.7713 13.7917 12.4195 13.4476 13.2029C13.33 13.4713 13.0902 13.6415 12.7281 13.7137Z" fill="#DDC779"/>
    <path d="M28.0092 16.6013C27.6983 16.6865 27.4495 16.7294 27.2626 16.7301C27.0087 16.7316 26.7548 16.7319 26.5009 16.7312C26.4807 16.7312 26.4673 16.7413 26.4608 16.7615C26.4565 16.7759 26.4475 16.7839 26.4338 16.7853C26.265 16.8019 26.1012 16.8138 25.9425 16.821C25.8632 16.8246 25.7708 16.8513 25.6655 16.9011C25.4469 17.005 25.3485 16.9844 25.3701 16.8394C25.8841 16.0776 26.5409 16.1587 27.3405 16.2085C27.5447 16.2215 27.7459 16.1732 27.9443 16.0635C28.0525 16.0044 28.0835 16.0318 28.0374 16.1458C27.9977 16.2432 27.9883 16.395 28.0092 16.6013Z" fill="#FAF2BF"/>
    <path d="M20.3987 11.4111C20.8142 11.264 21.2286 11.2369 21.5727 11.5334C21.8382 11.7621 21.9377 12.051 21.8714 12.4002C21.735 13.1144 21.3112 13.5988 20.5999 13.8535C20.1981 13.9978 19.8883 14.2175 19.6705 14.5125C19.6337 14.5623 19.6084 14.5572 19.5947 14.4974C19.5118 14.1345 19.3848 13.8661 19.2138 13.6923C18.6685 13.1382 18.3644 12.556 18.5116 11.7423C18.5628 11.4559 18.7146 11.2351 18.9671 11.08C19.3271 10.8585 19.7044 10.8917 20.0989 11.1796C20.1769 11.2369 20.2191 11.3202 20.2851 11.3862C20.3175 11.4187 20.3554 11.427 20.3987 11.4111Z" fill="#FAF2BF"/>
    <path d="M4.13382 17.8825C3.97439 17.3205 3.78323 16.7195 3.56033 16.0796C3.52931 15.9902 3.56105 15.948 3.65555 15.953C4.48801 15.9941 5.30821 15.9794 6.11614 15.9087C6.1551 15.9051 6.17602 15.9227 6.1789 15.9617C6.20271 16.2409 6.25537 16.5136 6.33688 16.7798C6.50929 17.3425 6.67953 17.8839 6.84761 18.404C6.84897 18.4088 6.84925 18.4137 6.84842 18.4185C6.84759 18.4233 6.84568 18.4279 6.84283 18.4318C6.83999 18.4357 6.8363 18.4388 6.83206 18.441C6.82782 18.4431 6.82313 18.4442 6.8184 18.4441C6.07322 18.4325 5.32336 18.438 4.5688 18.4603C4.47466 18.4625 4.39784 18.4917 4.31127 18.5231C4.25789 18.5411 4.22976 18.5224 4.22687 18.4668C4.21822 18.2785 4.18576 18.0621 4.13382 17.8825Z" fill="#DDC779"/>
    <path d="M10.952 9.48828C11.0097 9.51858 11.0425 9.55537 11.0505 9.59866C11.0562 9.62968 11.0454 9.6524 11.018 9.66683L10.5192 9.93953C10.4881 9.95612 10.4557 9.96838 10.4218 9.97632C10.3006 10.0034 10.2129 10.0975 10.1047 10.1246C10.0716 10.1332 10.0376 10.1408 10.003 10.1473C9.96768 10.1538 9.93702 10.1697 9.91105 10.1949C9.77976 10.3204 9.63116 10.4211 9.46524 10.4968C9.062 10.6815 8.71213 10.8539 8.41565 11.0141C8.32403 11.0631 8.21907 11.1472 8.10077 11.2662C8.0041 11.3636 7.95072 11.474 7.94063 11.5973C7.91898 11.8387 7.92007 12.0995 8.07155 12.304C8.26524 12.5658 8.3821 12.8872 8.58445 13.1426C8.7179 13.3114 8.8463 13.486 8.96966 13.6664C9.08291 13.8337 9.17994 14.0188 9.26073 14.2215C9.3408 14.4221 9.44035 14.6125 9.55938 14.7929C9.7152 15.0288 9.84648 15.2647 9.95325 15.5006C9.97489 15.5496 9.98932 15.6012 9.99653 15.6553C10.0016 15.6928 10.0146 15.7271 10.0355 15.7581C10.0896 15.8389 10.1484 15.9598 10.2119 16.1206C10.2393 16.1906 10.3103 16.3114 10.425 16.4831C10.4459 16.5134 10.4467 16.5441 10.4272 16.5751C10.3716 16.6617 10.2948 16.7122 10.1967 16.7266C9.15577 15.1085 8.12205 13.4871 7.09554 11.8625C6.69301 11.2251 6.86181 10.7695 7.55758 10.5379C8.68291 10.1635 9.81438 9.81364 10.952 9.48828Z" fill="#FAF2BF"/>
    <path d="M17.3848 12.0253C17.3156 13.497 17.2874 14.9925 17.2117 16.474C17.1186 18.2898 17.0598 20.0717 17.0353 21.8197C17.0353 21.837 17.0267 21.8456 17.0093 21.8456L16.9769 21.8467C16.9725 21.8467 16.97 21.8446 16.9693 21.8402C16.9469 21.4261 16.9235 20.9893 16.899 20.5298C16.8744 20.0673 16.8467 19.6352 16.8157 19.2334C16.5603 15.9913 16.3518 12.7814 16.1902 9.60354C16.1437 8.70863 16.6988 8.62206 17.4422 8.7768C19.5572 9.21686 21.7441 9.6746 24.0027 10.15C24.5502 10.2654 24.5441 10.3196 23.9843 10.3123C22.1513 10.2871 20.2 10.2452 18.1303 10.1868C17.2247 10.1608 17.4108 11.4648 17.3848 12.0253Z" fill="#E1D49E"/>
    <path d="M10.1958 16.7275C10.2939 16.7131 10.3708 16.6626 10.4263 16.576C10.4458 16.545 10.4451 16.5143 10.4241 16.484C10.3094 16.3123 10.2384 16.1915 10.211 16.1215C10.1475 15.9606 10.0887 15.8398 10.0346 15.759C10.0137 15.728 10.0007 15.6937 9.99564 15.6562C9.98843 15.6021 9.974 15.5505 9.95236 15.5014C9.84559 15.2655 9.7143 15.0296 9.55849 14.7937C9.43946 14.6134 9.33991 14.4229 9.25984 14.2224C9.17905 14.0197 9.08202 13.8346 8.96877 13.6672C8.84541 13.4869 8.71701 13.3123 8.58356 13.1435C8.38121 12.8881 8.26435 12.5667 8.07066 12.3048C7.91917 12.1003 7.91809 11.8395 7.93973 11.5982C7.94983 11.4749 8.00321 11.3645 8.09988 11.2671C8.21818 11.1481 8.32314 11.064 8.41476 11.015C8.71124 10.8548 9.0611 10.6824 9.46435 10.4977C9.63027 10.4219 9.77887 10.3213 9.91016 10.1958C9.93613 10.1705 9.96679 10.1547 10.0021 10.1482C10.0368 10.1417 10.0707 10.1341 10.1038 10.1254C10.2121 10.0984 10.2997 10.0042 10.4209 9.97719C10.4548 9.96926 10.4873 9.95699 10.5183 9.9404L11.0171 9.66771C11.0445 9.65328 11.0553 9.63055 11.0496 9.59953C11.0416 9.55625 11.0088 9.51945 10.9511 9.48915C12.1295 9.09743 13.1217 8.85395 14.1919 8.48819C14.3066 8.44923 14.378 8.42687 14.4061 8.4211C14.5886 8.38575 14.5987 8.41352 14.4364 8.50442C12.6041 9.52811 10.8191 10.4732 9.0813 11.3396C8.48401 11.6372 8.68419 12.1674 8.92657 12.649C10.5075 15.8023 12.1857 19.027 13.7763 22.2398C13.7807 22.2492 13.7785 22.2564 13.7698 22.2615H13.7688C13.7536 22.2694 13.7421 22.2662 13.7341 22.2518C13.5827 21.9863 13.4225 21.7251 13.2537 21.4683C12.2214 19.8956 11.2021 18.3153 10.1958 16.7275Z" fill="#E1D49E"/>
</svg>
