<svg width="66" height="62" viewBox="0 0 66 62" fill="none" xmlns="http://www.w3.org/2000/svg">
<path d="M56.0879 7.28027C58.1359 10.0483 60.1839 12.8083 62.2399 15.5763C62.7199 16.2243 63.1439 16.8963 63.5199 17.6083L57.3679 9.31227C56.9919 8.60027 56.5599 7.92027 56.0879 7.28027Z" fill="url(#paint0_linear_3847_2263)"/>
<path d="M9.47427 54.7123C7.42627 51.9443 5.37827 49.1843 3.32227 46.4163C5.23427 48.9923 7.92227 51.0083 11.2903 52.2563L17.4423 60.5523C14.0743 59.3043 11.3783 57.2883 9.47427 54.7123Z" fill="url(#paint1_linear_3847_2263)"/>
<path d="M57.377 9.32019L63.529 17.6162C64.441 19.3362 65.073 21.2642 65.369 23.4002C65.673 25.5362 65.609 27.7362 65.249 29.9602L59.097 21.6642C59.457 19.4482 59.5129 17.2402 59.2169 15.1042C58.9209 12.9682 58.289 11.0402 57.377 9.32019Z" fill="url(#paint2_linear_3847_2263)"/>
<path d="M25.2188 53.2241L31.3708 61.5201C28.8988 61.9441 26.4268 62.0881 24.0188 61.9201C21.6108 61.7521 19.4188 61.2801 17.4508 60.5521L11.2988 52.2561C13.2668 52.9841 15.4588 53.4561 17.8668 53.6241C20.2748 53.7921 22.7468 53.6401 25.2188 53.2241Z" fill="url(#paint3_linear_3847_2263)"/>
<path d="M55.4901 22.4962C55.3381 22.5282 55.1701 22.5442 54.9941 22.5282C54.7381 22.5122 54.4661 22.4402 54.2261 22.3202C53.8421 22.1362 53.5381 21.8242 53.4821 21.3922L52.4181 13.7762C52.3781 13.4722 52.4581 13.1282 52.6181 12.8002C52.9141 12.1602 53.4741 11.5442 53.9301 11.2802L57.3781 9.31224C55.4901 5.75224 52.3301 2.99224 48.1221 1.43224L46.0661 4.58424C45.6501 5.22424 44.3301 6.11224 43.3381 6.04024L34.7461 5.44024C33.7621 5.36824 33.2741 4.36024 33.4261 3.70424L34.2741 0.448242C28.9541 1.34424 23.5941 3.51224 18.7381 6.61624L20.2821 8.93624C20.4901 9.24824 20.4901 9.90424 20.2181 10.5442C20.0741 10.8802 19.8581 11.2162 19.5621 11.4882L12.0341 18.5042C11.8421 18.6802 11.6261 18.8322 11.4021 18.9522C11.1221 19.1042 10.8261 19.2082 10.5381 19.2722C10.2101 19.3522 9.89808 19.3762 9.40208 19.3282C9.33008 19.3122 9.26608 19.2882 9.21008 19.2642L6.53808 17.9922C4.93808 20.1842 3.55408 22.5122 2.48208 24.9442C1.41008 27.3762 0.698078 29.7522 0.330078 32.0322L3.94608 31.1922C4.08208 31.1602 4.22608 31.1522 4.44208 31.1602C4.63408 31.1762 4.83408 31.2162 5.02608 31.2882C5.49008 31.4562 5.89008 31.7922 5.96208 32.2882L7.01808 39.9042C7.05808 40.2082 6.97808 40.5442 6.82608 40.8802C6.53008 41.5202 5.97008 42.1362 5.51408 42.3922L2.08208 44.4002C3.97008 47.9442 7.12208 50.6962 11.3221 52.2482L13.3781 49.0962C13.7941 48.4562 15.1221 47.5682 16.1141 47.6322L24.7061 48.2322C25.6981 48.3042 26.1781 49.3122 26.0181 49.9762L25.2421 53.2242C30.5381 52.3202 35.8741 50.1522 40.7141 47.0562L39.1621 44.7362C38.9541 44.4242 38.9541 43.7762 39.2261 43.1362C39.3701 42.8002 39.5861 42.4722 39.8821 42.1922L47.4181 35.1682C47.9061 34.7122 48.5621 34.4482 49.1461 34.3522C49.3861 34.3122 49.6101 34.3042 49.8981 34.3202C50.0341 34.3362 50.1461 34.3682 50.2421 34.4082L52.9221 35.6802C54.5221 33.4882 55.8981 31.1522 56.9701 28.7282C58.0421 26.2962 58.7541 23.9202 59.1221 21.6402L55.5141 22.4802L55.4901 22.4962Z" fill="url(#paint4_linear_3847_2263)"/>
<path d="M59.0965 21.6561L65.2485 29.9521C64.8725 32.2321 64.1685 34.6081 63.0965 37.0401C62.0245 39.4721 60.6485 41.8001 59.0485 43.9921L52.8965 35.6961C54.4965 33.5041 55.8725 31.1681 56.9445 28.7441C58.0165 26.3121 58.7285 23.9361 59.0965 21.6561Z" fill="url(#paint5_linear_3847_2263)"/>
<path d="M40.6888 47.0642L46.8408 55.3602C42.0008 58.4562 36.6648 60.6242 31.3688 61.5282L25.2168 53.2322C30.5128 52.3282 35.8488 50.1602 40.6888 47.0642Z" fill="url(#paint6_linear_3847_2263)"/>
<path d="M12.0257 18.5121L19.5537 11.4961C19.8497 11.2161 20.0657 10.8881 20.2097 10.5521C20.4817 9.91215 20.4817 9.25615 20.2737 8.94415L18.7217 6.62415C16.3937 8.12015 14.1457 9.84815 12.0337 11.8161C9.92167 13.7841 8.08167 15.8641 6.51367 18.0001L9.18567 19.2721C9.24167 19.2961 9.30567 19.3201 9.37767 19.3361C9.41767 19.3441 9.44967 19.3521 9.48967 19.3601C9.52967 19.3601 9.56967 19.3681 9.61767 19.3761C9.87367 19.3921 10.1857 19.3681 10.5137 19.2881C10.8017 19.2161 11.0977 19.1121 11.3777 18.9681C11.6017 18.8481 11.8177 18.6961 12.0097 18.5201L12.0257 18.5121Z" fill="url(#paint7_linear_3847_2263)"/>
<path d="M46.0581 4.59214L48.1221 1.44014C48.0661 1.41614 48.0101 1.40015 47.9541 1.37615C47.7061 1.28814 47.4501 1.20015 47.1941 1.12014C45.4741 0.568145 43.5861 0.216145 41.5541 0.072145C39.5861 -0.063855 37.5781 0.008145 35.5541 0.272145C35.1781 0.320145 34.7941 0.376145 34.4181 0.440145C34.3461 0.448145 34.2741 0.464145 34.2021 0.480145L33.4261 3.72014C33.2661 4.38415 33.7621 5.39215 34.7461 5.45615L43.3381 6.05615C44.3301 6.12815 45.6501 5.24015 46.0661 4.60014L46.0581 4.59214Z" fill="url(#paint8_linear_3847_2263)"/>
<path d="M5.92921 32.2882C5.85721 31.8002 5.45721 31.4562 4.99321 31.2882C4.80121 31.2162 4.60121 31.1762 4.40921 31.1602C4.38521 31.1602 4.36921 31.1602 4.34521 31.1602C4.19321 31.1602 4.04921 31.1602 3.91321 31.2002L0.297209 32.0402C-0.0547912 34.2562 -0.110791 36.4642 0.185209 38.6002C0.481209 40.7362 1.10521 42.6642 2.02521 44.3762L5.46521 42.4082C5.92121 42.1442 6.48121 41.5282 6.77721 40.8962C6.92921 40.5602 7.01721 40.2242 6.96921 39.9202L5.91321 32.3042L5.92921 32.2882Z" fill="url(#paint9_linear_3847_2263)"/>
<path d="M59.2178 15.1042C58.9218 12.9682 58.2898 11.0402 57.3778 9.32019L53.9298 11.2882C53.4658 11.5522 52.9138 12.1682 52.6178 12.8082C52.4658 13.1442 52.3778 13.4882 52.4178 13.7842L53.4818 21.4002C53.5378 21.8322 53.8418 22.1362 54.2258 22.3282C54.4658 22.4482 54.7378 22.5122 54.9938 22.5362C55.1698 22.5522 55.3378 22.5362 55.4898 22.5042L59.0978 21.6642C59.4578 19.4482 59.5138 17.2402 59.2178 15.1042Z" fill="url(#paint10_linear_3847_2263)"/>
<path d="M24.675 48.2322L16.083 47.6322C15.099 47.5682 13.771 48.4482 13.347 49.0962L11.291 52.2482C13.259 52.9762 15.451 53.4482 17.859 53.6162C20.267 53.7842 22.739 53.6322 25.211 53.2162L25.979 49.9682C26.139 49.3042 25.659 48.2962 24.667 48.2242L24.675 48.2322Z" fill="url(#paint11_linear_3847_2263)"/>
<path d="M49.875 34.3362C49.875 34.3362 49.811 34.3362 49.779 34.3282C49.587 34.3122 49.363 34.3282 49.123 34.3682C48.539 34.4642 47.875 34.7282 47.395 35.1842L39.859 42.2082C39.563 42.4882 39.347 42.8162 39.203 43.1522C38.931 43.7922 38.931 44.4482 39.139 44.7522L40.691 47.0722C43.019 45.5842 45.267 43.8482 47.379 41.8882C49.475 39.9362 51.299 37.8802 52.851 35.7602C52.867 35.7442 52.875 35.7202 52.891 35.7042L50.219 34.4322C50.123 34.3922 50.011 34.3602 49.875 34.3442V34.3362Z" fill="url(#paint12_linear_3847_2263)"/>
<path d="M52.8895 35.6962L59.0415 43.9922C59.0415 43.9922 59.0175 44.0242 59.0015 44.0482C57.4415 46.1682 55.6175 48.2242 53.5295 50.1762C51.4175 52.1442 49.1695 53.8722 46.8415 55.3602L40.6895 47.0642C43.0175 45.5762 45.2655 43.8402 47.3775 41.8802C49.4735 39.9282 51.2975 37.8722 52.8495 35.7522C52.8654 35.7362 52.8735 35.7122 52.8895 35.6962Z" fill="url(#paint13_linear_3847_2263)"/>
<g style="mix-blend-mode:overlay">
<path d="M37.7621 8.8962C27.5381 8.1842 15.6341 15.7602 11.1861 25.8162C6.73811 35.8722 11.4261 44.6002 21.6501 45.3122C31.8821 46.0242 43.7701 38.4482 48.2181 28.3922C52.6661 18.3362 47.9861 9.6082 37.7541 8.8962H37.7621Z" fill="white"/>
</g>
<path d="M37.7621 8.6401C27.5381 7.9281 15.6341 15.5041 11.1861 25.5601C6.73811 35.6161 11.4261 44.3441 21.6501 45.0561C31.8821 45.7681 43.7701 38.1921 48.2181 28.1361C52.6661 18.0801 47.9861 9.3521 37.7541 8.6401H37.7621Z" fill="#FF9F05"/>
<path d="M36.8732 18.2401L34.5371 16.0641L30.5371 17.9121C30.3371 18.0081 28.5292 18.8401 26.5452 19.9601C23.6492 21.6001 20.1532 23.9121 18.7612 27.2801C17.4492 30.4481 19.0012 33.1521 22.2252 33.3201C23.8092 33.4001 25.5052 32.8561 26.9772 31.9041C25.8172 33.6241 24.0652 35.7761 21.7852 37.2241L29.6172 37.6321C28.6012 36.0161 28.6571 33.7761 28.9531 32.0081C29.5851 33.0721 30.7691 33.7681 32.3531 33.8481C35.5851 34.0161 39.2492 31.5921 40.5612 28.4241C41.9532 25.0561 40.4812 22.4881 39.0332 20.6161C38.0492 19.3441 36.9931 18.3521 36.8811 18.2401H36.8732Z" fill="url(#paint14_linear_3847_2263)"/>
<path d="M11.7859 27.5202C16.2339 17.4642 28.1299 9.88816 38.3619 10.6002C43.9939 10.9922 47.9379 13.8162 49.6099 17.9522C48.4979 12.7602 44.2499 9.08816 37.7619 8.63216C27.5379 7.92016 15.6339 15.4962 11.1859 25.5522C9.18591 30.0722 9.04191 34.3202 10.4019 37.6882C9.76191 34.6882 10.1619 31.1922 11.7859 27.5122V27.5202Z" fill="#E87500"/>
<g style="mix-blend-mode:multiply">
<path d="M65.3706 23.4001C65.0746 21.2641 64.4426 19.3361 63.5306 17.6161C63.1546 16.9041 62.7226 16.2241 62.2506 15.5841C62.1546 15.4481 62.0506 15.3121 61.9546 15.1841C62.2586 15.6801 62.5546 16.2161 62.8026 16.6881C63.7146 18.4081 64.3466 20.3361 64.6426 22.4721C64.9386 24.6081 64.8826 26.8081 64.5226 29.0321C64.1466 31.3121 63.4426 33.6881 62.3706 36.1201C61.2986 38.5521 59.9226 40.8801 58.3226 43.0721H58.3066C58.2906 43.0881 58.2826 43.1041 58.2666 43.1281C56.7066 45.2481 54.8826 47.3041 52.7946 49.2561C50.6826 51.2241 48.4346 52.9521 46.1066 54.4401C41.2666 57.5361 35.9306 59.7041 30.6346 60.6081C28.1626 61.0241 25.6906 61.1681 23.2906 61.0001C20.8826 60.8321 18.6906 60.3601 16.7226 59.6321C13.6586 58.4961 11.1706 56.7281 9.30664 54.4801C9.37064 54.5601 9.42664 54.6401 9.49064 54.7201C11.4026 57.2961 14.0906 59.3121 17.4586 60.5601C19.4266 61.2881 21.6266 61.7601 24.0266 61.9281C26.4346 62.0961 28.8986 61.9441 31.3706 61.5281C36.6666 60.6321 42.0026 58.4641 46.8426 55.3681C49.1706 53.8801 51.4186 52.1441 53.5306 50.1841C55.6266 48.2321 57.4506 46.1761 59.0026 44.0561C59.0186 44.0401 59.0266 44.0241 59.0426 44.0001H59.0586C60.6586 41.8081 62.0346 39.4721 63.1066 37.0481C64.1786 34.6161 64.8906 32.2401 65.2586 29.9601C65.6186 27.7441 65.6746 25.5361 65.3786 23.4001H65.3706Z" fill="#B0AAAA"/>
</g>
<g style="mix-blend-mode:overlay">
<path d="M57.3462 29.248C58.4182 26.816 59.1302 24.44 59.4982 22.16C59.8582 19.944 59.9142 17.736 59.6182 15.6C59.3222 13.464 58.6902 11.536 57.7782 9.81597C57.4822 9.25597 57.1462 8.72797 56.7862 8.20797C56.5542 7.89597 56.3222 7.58397 56.0902 7.27197C56.5702 7.91197 56.9942 8.59197 57.3702 9.30397C58.2822 11.024 58.9142 12.952 59.2102 15.088C59.5062 17.224 59.4502 19.424 59.0902 21.648C58.7142 23.928 58.0102 26.304 56.9382 28.736C55.8662 31.168 54.4902 33.496 52.8902 35.688C52.8742 35.704 52.8662 35.72 52.8502 35.744C51.2902 37.864 49.4662 39.92 47.3782 41.872C45.2662 43.84 43.0182 45.568 40.6902 47.056C35.8502 50.152 30.5222 52.32 25.2262 53.224C22.7542 53.64 20.2822 53.784 17.8742 53.624C15.4662 53.456 13.2742 52.984 11.3062 52.256C8.1142 51.072 5.5462 49.2 3.6582 46.824C3.6822 46.856 3.7062 46.896 3.7302 46.928C5.6422 49.504 8.3302 51.52 11.6982 52.768C13.6662 53.496 15.8582 53.968 18.2662 54.136C20.6742 54.304 23.1382 54.152 25.6102 53.736C30.9062 52.84 36.2422 50.672 41.0822 47.576C43.4102 46.088 45.6582 44.352 47.7702 42.392C49.8662 40.44 51.6902 38.384 53.2422 36.264C53.2582 36.248 53.2662 36.232 53.2822 36.208H53.2982C54.8982 34.016 56.2742 31.68 57.3462 29.256V29.248Z" fill="white"/>
</g>
<defs>
<linearGradient id="paint0_linear_3847_2263" x1="79.1119" y1="-8.16773" x2="20.4479" y2="54.4883" gradientUnits="userSpaceOnUse">
<stop stop-color="#FFEA05"/>
<stop offset="0.19" stop-color="#FFD905"/>
<stop offset="0.72" stop-color="#FFAF05"/>
<stop offset="1" stop-color="#FF9F05"/>
</linearGradient>
<linearGradient id="paint1_linear_3847_2263" x1="73.2503" y1="-13.6717" x2="14.5783" y2="49.0003" gradientUnits="userSpaceOnUse">
<stop stop-color="#FFEA05"/>
<stop offset="0.19" stop-color="#FFD905"/>
<stop offset="0.72" stop-color="#FFAF05"/>
<stop offset="1" stop-color="#FF9F05"/>
</linearGradient>
<linearGradient id="paint2_linear_3847_2263" x1="60.945" y1="9.49619" x2="64.809" y2="67.7682" gradientUnits="userSpaceOnUse">
<stop stop-color="#38393B"/>
<stop offset="0.33" stop-color="#2E2F31"/>
<stop offset="1" stop-color="#1F2021"/>
</linearGradient>
<linearGradient id="paint3_linear_3847_2263" x1="18.3708" y1="12.3281" x2="22.2428" y2="70.5921" gradientUnits="userSpaceOnUse">
<stop stop-color="#38393B"/>
<stop offset="0.33" stop-color="#2E2F31"/>
<stop offset="1" stop-color="#1F2021"/>
</linearGradient>
<linearGradient id="paint4_linear_3847_2263" x1="11.0821" y1="23.7202" x2="88.9461" y2="36.7842" gradientUnits="userSpaceOnUse">
<stop stop-color="#FFEA05"/>
<stop offset="0.19" stop-color="#FFD905"/>
<stop offset="0.72" stop-color="#FFAF05"/>
<stop offset="1" stop-color="#FF9F05"/>
</linearGradient>
<linearGradient id="paint5_linear_3847_2263" x1="88.8885" y1="0.976127" x2="30.2245" y2="63.6401" gradientUnits="userSpaceOnUse">
<stop stop-color="#FFEA05"/>
<stop offset="0.19" stop-color="#FFD905"/>
<stop offset="0.72" stop-color="#FFAF05"/>
<stop offset="1" stop-color="#FF9F05"/>
</linearGradient>
<linearGradient id="paint6_linear_3847_2263" x1="87.3208" y1="-0.495796" x2="28.6488" y2="62.1682" gradientUnits="userSpaceOnUse">
<stop stop-color="#FFEA05"/>
<stop offset="0.19" stop-color="#FFD905"/>
<stop offset="0.72" stop-color="#FFAF05"/>
<stop offset="1" stop-color="#FF9F05"/>
</linearGradient>
<linearGradient id="paint7_linear_3847_2263" x1="8.71367" y1="11.9761" x2="69.1057" y2="23.3121" gradientUnits="userSpaceOnUse">
<stop stop-color="#38393B"/>
<stop offset="0.33" stop-color="#2E2F31"/>
<stop offset="1" stop-color="#1F2021"/>
</linearGradient>
<linearGradient id="paint8_linear_3847_2263" x1="11.3941" y1="-2.34385" x2="71.8021" y2="8.99215" gradientUnits="userSpaceOnUse">
<stop stop-color="#38393B"/>
<stop offset="0.33" stop-color="#2E2F31"/>
<stop offset="1" stop-color="#1F2021"/>
</linearGradient>
<linearGradient id="paint9_linear_3847_2263" x1="3.84921" y1="37.8722" x2="64.2572" y2="49.2082" gradientUnits="userSpaceOnUse">
<stop stop-color="#38393B"/>
<stop offset="0.33" stop-color="#2E2F31"/>
<stop offset="1" stop-color="#1F2021"/>
</linearGradient>
<linearGradient id="paint10_linear_3847_2263" x1="9.60983" y1="7.19219" x2="70.0098" y2="18.5202" gradientUnits="userSpaceOnUse">
<stop stop-color="#38393B"/>
<stop offset="0.33" stop-color="#2E2F31"/>
<stop offset="1" stop-color="#1F2021"/>
</linearGradient>
<linearGradient id="paint11_linear_3847_2263" x1="2.05901" y1="47.4082" x2="62.459" y2="58.7442" gradientUnits="userSpaceOnUse">
<stop stop-color="#38393B"/>
<stop offset="0.33" stop-color="#2E2F31"/>
<stop offset="1" stop-color="#1F2021"/>
</linearGradient>
<linearGradient id="paint12_linear_3847_2263" x1="4.74703" y1="33.0882" x2="65.147" y2="44.4242" gradientUnits="userSpaceOnUse">
<stop stop-color="#38393B"/>
<stop offset="0.33" stop-color="#2E2F31"/>
<stop offset="1" stop-color="#1F2021"/>
</linearGradient>
<linearGradient id="paint13_linear_3847_2263" x1="47.5295" y1="10.3922" x2="51.3935" y2="68.6562" gradientUnits="userSpaceOnUse">
<stop stop-color="#38393B"/>
<stop offset="0.33" stop-color="#2E2F31"/>
<stop offset="1" stop-color="#1F2021"/>
</linearGradient>
<linearGradient id="paint14_linear_3847_2263" x1="18.2892" y1="26.8481" x2="41.1132" y2="26.8481" gradientUnits="userSpaceOnUse">
<stop stop-color="#38393B"/>
<stop offset="0.33" stop-color="#2E2F31"/>
<stop offset="1" stop-color="#1F2021"/>
</linearGradient>
</defs>
</svg>
