<svg width="96" height="66" viewBox="0 0 96 66" fill="none" xmlns="http://www.w3.org/2000/svg">
<path d="M59.3099 28.944L24.8183 48.9848C23.0347 50.0196 20.1279 50.0196 18.334 48.9848L1.35595 39.1776C0.451154 38.6576 -0.00124943 37.9712 0.00395057 37.2848V44.232C0.00395057 44.9184 0.456354 45.6048 1.35595 46.1248L18.334 55.9268C20.1332 56.9668 23.0347 56.9668 24.8183 55.9268L59.3099 35.886C60.194 35.3712 60.6411 34.6952 60.6411 34.0192V27.072C60.6411 27.748 60.194 28.424 59.3099 28.9388V28.944Z" fill="#568210"/>
<g style="mix-blend-mode:multiply" opacity="0.6">
<path d="M1.35595 46.1299L18.334 55.9319C20.1332 56.9719 23.0347 56.9719 24.8183 55.9319L59.3099 35.8911C60.194 35.3762 60.6359 34.7055 60.6411 34.0295V33.6187C60.6411 34.2947 60.194 34.9707 59.3099 35.4855L24.8183 55.5315C23.0347 56.5663 20.1279 56.5663 18.334 55.5315L1.35595 45.7243C0.451154 45.2043 -0.00124943 44.5179 0.00395057 43.8315V44.2319C0.00395057 44.9183 0.456354 45.6046 1.35595 46.1246V46.1299Z" fill="#568210"/>
</g>
<path opacity="0.6" d="M1.35595 39.5832L18.334 49.3852C20.1332 50.4252 23.0347 50.4252 24.8183 49.3852L59.3099 29.3444C60.194 28.8296 60.6359 28.1588 60.6411 27.4828V27.072C60.6411 27.748 60.194 28.424 59.3099 28.9388L24.8183 48.9796C23.0347 50.0144 20.1279 50.0144 18.334 48.9796L1.35595 39.1724C0.451154 38.6524 -0.00124943 37.966 0.00395057 37.2796V37.68C0.00395057 38.3664 0.456354 39.0528 1.35595 39.5728V39.5832Z" fill="#ABE055"/>
<path d="M59.2878 25.1844C61.087 26.2244 61.0922 27.9092 59.3086 28.944L24.817 48.9848C23.0334 50.0196 20.1266 50.0196 18.3326 48.9848L1.35465 39.1776C-0.439354 38.1428 -0.454955 36.458 1.32864 35.4232L35.8202 15.3772C37.6038 14.3424 40.5158 14.3424 42.3098 15.3772L59.2878 25.1792V25.1844Z" fill="#7AB816"/>
<path d="M37.8523 36.5309C33.7183 38.9333 26.9999 38.9333 22.8399 36.5309C18.6799 34.1285 18.6591 30.2337 22.7879 27.8365C26.9219 25.4341 33.6403 25.4341 37.8003 27.8365C41.9603 30.2389 41.9811 34.1285 37.8471 36.5309M35.4291 17.9617L5.78906 35.1893C7.80666 36.3541 7.82226 38.2469 5.80986 39.4169L17.9103 46.4057C19.9227 45.2357 23.1883 45.2409 25.2111 46.4057L54.8511 29.1781C52.8335 28.0133 52.8179 26.1153 54.8303 24.9505L42.7299 17.9669C40.7227 19.1317 37.4519 19.1317 35.4291 17.9669" fill="#ABE055"/>
<path d="M24.625 21.8827L48.1186 35.4443L56.2774 30.7071L32.7838 17.1455L24.625 21.8827Z" fill="#E8943E"/>
<path d="M48.1172 42.3964L56.276 37.654V30.7068L48.1172 35.444V42.3964Z" fill="#A4542B"/>
<g style="mix-blend-mode:multiply" opacity="0.7">
<path d="M48.1172 42.3965L56.276 37.6541V37.2537L48.1172 41.9961V42.3965Z" fill="#A4542B"/>
</g>
<g style="mix-blend-mode:overlay" opacity="0.6">
<path d="M48.1172 35.8496L56.276 31.1072V30.7068L48.1172 35.4492V35.8496Z" fill="white"/>
</g>
<path d="M59.3099 21.9969L24.8183 42.0429C23.0347 43.0777 20.1279 43.0777 18.334 42.0429L1.35595 32.2357C0.451154 31.7157 -0.00124943 31.0293 0.00395057 30.3429V37.2901C0.00395057 37.9765 0.456354 38.6629 1.35595 39.1829L18.334 48.9849C20.1332 50.0249 23.0347 50.0249 24.8183 48.9849L59.3099 28.9441C60.194 28.4293 60.6411 27.7533 60.6411 27.0773V20.1301C60.6411 20.8061 60.194 21.4821 59.3099 21.9969Z" fill="#568210"/>
<g style="mix-blend-mode:multiply" opacity="0.6">
<path d="M1.35595 39.1828L18.334 48.9848C20.1332 50.0248 23.0347 50.0248 24.8183 48.9848L59.3099 28.944C60.194 28.4292 60.6359 27.7584 60.6411 27.0824V26.6716C60.6411 27.3476 60.194 28.0236 59.3099 28.5384L24.8183 48.5792C23.0347 49.614 20.1279 49.614 18.334 48.5792L1.35595 38.7772C0.451154 38.2572 -0.00124943 37.5708 0.00395057 36.8844V37.2848C0.00395057 37.9712 0.456354 38.6576 1.35595 39.1776V39.1828Z" fill="#568210"/>
</g>
<path opacity="0.6" d="M1.35595 32.636L18.334 42.438C20.1332 43.478 23.0347 43.478 24.8183 42.438L59.3099 22.3972C60.194 21.8824 60.6359 21.2116 60.6411 20.5356V20.1248C60.6411 20.8008 60.194 21.4768 59.3099 21.9916L24.8183 42.0324C23.0347 43.0672 20.1279 43.0672 18.334 42.0324L1.35595 32.2252C0.451154 31.7052 -0.00124943 31.0188 0.00395057 30.3324V30.7328C0.00395057 31.4192 0.456354 32.1056 1.35595 32.6256V32.636Z" fill="#ABE055"/>
<path d="M59.2878 18.2372C61.087 19.2772 61.0922 20.962 59.3086 21.9967L24.817 42.0428C23.0334 43.0776 20.1266 43.0776 18.3326 42.0428L1.35465 32.2356C-0.439354 31.2008 -0.454955 29.516 1.32864 28.4812L35.8202 8.43516C37.6038 7.40036 40.5158 7.40036 42.3098 8.43516L59.2878 18.2372Z" fill="#7AB816"/>
<path d="M37.8523 29.5841C33.7183 31.9865 26.9999 31.9865 22.8399 29.5841C18.6799 27.1817 18.6591 23.2869 22.7879 20.8897C26.9219 18.4873 33.6403 18.4873 37.8003 20.8897C41.9603 23.2921 41.9811 27.1869 37.8471 29.5841M35.4291 11.0149L5.78906 28.2373C7.80666 29.4021 7.82226 31.2949 5.80986 32.4649L17.9103 39.4537C19.9227 38.2837 23.1883 38.2889 25.2111 39.4537L54.8511 22.2261C52.8335 21.0613 52.8179 19.1633 54.8303 17.9985L42.7299 11.0149C40.7227 12.1797 37.4519 12.1797 35.4291 11.0149Z" fill="#ABE055"/>
<path d="M24.625 14.9359L48.1186 28.4975L56.2774 23.7603L32.7838 10.1935L24.625 14.9359Z" fill="#E8943E"/>
<path d="M48.1172 35.4494L56.276 30.707V23.7598L48.1172 28.497V35.4494Z" fill="#A4542B"/>
<g style="mix-blend-mode:multiply" opacity="0.7">
<path d="M48.1172 35.4492L56.276 30.7068V30.3064L48.1172 35.0436V35.4492Z" fill="#A4542B"/>
</g>
<g style="mix-blend-mode:overlay" opacity="0.6">
<path d="M48.1172 28.9026L56.276 24.1602V23.7598L48.1172 28.5022V28.9026Z" fill="white"/>
</g>
<path d="M59.3099 15.0495L24.8183 35.0903C23.0347 36.1251 20.1279 36.1251 18.334 35.0903L1.35595 25.2883C0.451154 24.7683 -0.00124943 24.0819 0.00395057 23.3955V30.3427C0.00395057 31.0291 0.456354 31.7155 1.35595 32.2355L18.334 42.0375C20.1332 43.0775 23.0347 43.0775 24.8183 42.0375L59.3099 21.9915C60.194 21.4767 60.6411 20.8007 60.6411 20.1247V13.1775C60.6411 13.8535 60.194 14.5295 59.3099 15.0443V15.0495Z" fill="#568210"/>
<g style="mix-blend-mode:multiply" opacity="0.6">
<path d="M1.35595 32.2356L18.334 42.0376C20.1332 43.0776 23.0347 43.0776 24.8183 42.0376L59.3099 21.9916C60.194 21.4768 60.6359 20.806 60.6411 20.13V19.7192C60.6411 20.3952 60.194 21.0712 59.3099 21.586L24.8183 41.6268C23.0347 42.6616 20.1279 42.6616 18.334 41.6268L1.35595 31.8196C0.451154 31.2996 -0.00124943 30.6132 0.00395057 29.9268V30.3272C0.00395057 31.0136 0.456354 31.7 1.35595 32.22V32.2356Z" fill="#568210"/>
</g>
<path opacity="0.6" d="M1.35595 25.6887L18.334 35.4907C20.1332 36.5307 23.0347 36.5307 24.8183 35.4907L59.3099 15.4499C60.194 14.9351 60.6359 14.2643 60.6411 13.5883V13.1775C60.6411 13.8535 60.194 14.5295 59.3099 15.0443L24.8183 35.0851C23.0347 36.1199 20.1279 36.1199 18.334 35.0851L1.35595 25.2831C0.451154 24.7631 -0.00124943 24.0767 0.00395057 23.3903V23.7907C0.00395057 24.4771 0.456354 25.1635 1.35595 25.6835V25.6887Z" fill="#ABE055"/>
<path d="M59.2878 11.29C61.087 12.33 61.0922 14.0148 59.3086 15.0496L24.817 35.0904C23.0334 36.1252 20.1266 36.1252 18.3326 35.0904L1.35465 25.2884C-0.439354 24.2536 -0.454955 22.5688 1.32864 21.534L35.8202 1.48801C37.6038 0.453214 40.5158 0.453214 42.3098 1.48801L59.2878 11.29Z" fill="#7AB816"/>
<path d="M37.8523 22.6363C33.7183 25.0387 26.9999 25.0387 22.8399 22.6363C18.6799 20.2339 18.6591 16.3391 22.7879 13.9419C26.9219 11.5395 33.6403 11.5395 37.8003 13.9419C41.9603 16.3443 41.9811 20.2391 37.8471 22.6363M35.4291 4.06714L5.78906 21.2895C7.80666 22.4543 7.82226 24.3471 5.80986 25.5171L17.9103 32.5059C19.9227 31.3359 23.1883 31.3359 25.2111 32.5059L54.8511 15.2783C52.8335 14.1135 52.8179 12.2155 54.8303 11.0507L42.7299 4.06714C40.7227 5.23194 37.4519 5.23194 35.4291 4.06714Z" fill="#ABE055"/>
<path d="M24.625 7.98801L48.1186 21.5496L56.2774 16.8124L32.7838 3.24561L24.625 7.98801Z" fill="#E8943E"/>
<path d="M48.1172 28.5021L56.276 23.7597V16.8125L48.1172 21.5497V28.5021Z" fill="#A4542B"/>
<g style="mix-blend-mode:multiply" opacity="0.7">
<path d="M48.1172 28.5019L56.276 23.7595V23.3591L48.1172 28.0963V28.5019Z" fill="#A4542B"/>
</g>
<g style="mix-blend-mode:overlay" opacity="0.6">
<path d="M48.1172 21.9553L56.276 17.2129V16.8125L48.1172 21.5497V21.9553Z" fill="white"/>
</g>
<path d="M93.8783 38.0962L59.3867 58.137C57.6031 59.1718 54.6963 59.1718 52.9023 58.137L35.9243 48.335C35.0195 47.815 34.5671 47.1286 34.5723 46.4422V53.3894C34.5723 54.0758 35.0247 54.7622 35.9243 55.2822L52.9023 65.0842C54.7015 66.1242 57.6031 66.1242 59.3867 65.0842L93.8783 45.0434C94.7623 44.5286 95.2095 43.8526 95.2095 43.1766V36.2294C95.2095 36.9054 94.7623 37.5814 93.8783 38.0962Z" fill="#568210"/>
<g style="mix-blend-mode:multiply" opacity="0.6">
<path d="M35.9243 55.2821L52.9023 65.0841C54.7015 66.1241 57.6031 66.1241 59.3867 65.0841L93.8783 45.0433C94.7623 44.5285 95.2043 43.8577 95.2095 43.1817V42.7709C95.2095 43.4469 94.7623 44.1229 93.8783 44.6377L59.3867 64.6785C57.6031 65.7133 54.6963 65.7133 52.9023 64.6785L35.9243 54.8713C35.0195 54.3513 34.5671 53.6649 34.5723 52.9785V53.3789C34.5723 54.0653 35.0247 54.7517 35.9243 55.2717V55.2821Z" fill="#568210"/>
</g>
<path opacity="0.6" d="M35.9243 48.7357L52.9023 58.5377C54.7015 59.5777 57.6031 59.5777 59.3867 58.5377L93.8783 38.4969C94.7623 37.9821 95.2043 37.3113 95.2095 36.6353V36.2245C95.2095 36.9005 94.7623 37.5765 93.8783 38.0913L59.3867 58.1321C57.6031 59.1669 54.6963 59.1669 52.9023 58.1321L35.9243 48.3301C35.0195 47.8101 34.5671 47.1237 34.5723 46.4373V46.8377C34.5723 47.5241 35.0247 48.2105 35.9243 48.7305V48.7357Z" fill="#ABE055"/>
<path d="M93.8562 34.3365C95.6554 35.3765 95.6606 37.0561 93.877 38.0961L59.3854 58.1369C57.6018 59.1717 54.695 59.1717 52.901 58.1369L35.923 48.3349C34.129 47.3001 34.1134 45.6153 35.897 44.5805L70.3886 24.5345C72.1722 23.4997 75.0842 23.4997 76.8782 24.5345L93.8562 34.3365Z" fill="#7AB816"/>
<path d="M72.4219 45.6829C68.2879 48.0853 61.5695 48.0853 57.4095 45.6829C53.2495 43.2805 53.2287 39.3857 57.3575 36.9885C61.4915 34.5861 68.2099 34.5861 72.3699 36.9885C76.5299 39.3909 76.5507 43.2857 72.4167 45.6829M69.9935 27.1189L40.3535 44.3413C42.3711 45.5113 42.3867 47.3989 40.3743 48.5689L52.4747 55.5577C54.4871 54.3877 57.7527 54.3877 59.7755 55.5577L89.4155 38.3353C87.3979 37.1705 87.3823 35.2725 89.3947 34.1077L77.2943 27.1189C75.2871 28.2837 72.0163 28.2837 69.9935 27.1189Z" fill="#ABE055"/>
<path d="M59.1934 31.0399L82.6818 44.6015L90.8458 39.8591L67.3522 26.2975L59.1934 31.0399Z" fill="#E8943E"/>
<path d="M82.6816 51.5486L90.8456 46.8062V39.859L82.6816 44.6014V51.5486Z" fill="#A4542B"/>
<g style="mix-blend-mode:multiply" opacity="0.7">
<path d="M82.6816 51.5484L90.8456 46.806V46.4056L82.6816 51.148V51.5484Z" fill="#A4542B"/>
</g>
<g style="mix-blend-mode:overlay" opacity="0.6">
<path d="M82.6816 45.0018L90.8456 40.2594V39.859L82.6816 44.6014V45.0018Z" fill="white"/>
</g>
</svg>
