<svg xmlns="http://www.w3.org/2000/svg" width="25" height="25" fill="none"><rect width="25" height="25" fill="#128AFA" rx="12.5"/><rect width="25" height="25" fill="url(#a)" fill-opacity=".2" rx="12.5"/><path fill="#fff" fill-rule="evenodd" d="M6.813 12.5a5.688 5.688 0 1 0 11.375 0 5.688 5.688 0 0 0-11.375 0ZM19 12.5a6.5 6.5 0 1 1-13 0 6.5 6.5 0 0 1 13 0Zm-6.094-2.844a.406.406 0 0 0-.812 0v4.707l-1.744-1.744a.406.406 0 1 0-.575.575l2.438 2.437a.406.406 0 0 0 .574 0l2.438-2.437a.406.406 0 0 0-.575-.575l-1.744 1.744V9.656Z" clip-rule="evenodd"/><defs><linearGradient id="a" x1="12.5" x2="12.5" y1="0" y2="25" gradientUnits="userSpaceOnUse"><stop stop-color="#fff"/><stop offset="1" stop-color="#fff" stop-opacity="0"/></linearGradient></defs></svg>