<svg xmlns="http://www.w3.org/2000/svg" width="40" height="40" fill="none"><path fill="#BBB" d="M20 37.5c-9.665 0-17.5-7.835-17.5-17.5S10.335 2.5 20 2.5 37.5 10.335 37.5 20 29.665 37.5 20 37.5Zm0 2.5c11.046 0 20-8.954 20-20S31.046 0 20 0 0 8.954 0 20s8.954 20 20 20Z"/><path fill="#BBB" d="M11.616 11.616a1.25 1.25 0 0 1 1.768 0L20 18.232l6.616-6.616a1.25 1.25 0 0 1 1.768 1.768L21.768 20l6.616 6.616a1.25 1.25 0 0 1-1.768 1.768L20 21.768l-6.616 6.616a1.25 1.25 0 0 1-1.768-1.768L18.232 20l-6.616-6.616a1.25 1.25 0 0 1 0-1.768Z"/></svg>