<svg xmlns="http://www.w3.org/2000/svg" width="17" height="20" fill="none"><g fill="#fff"><path d="M9.107 12.5c-.335 0-.607-.56-.607-1.25S8.772 10 9.107 10c.335 0 .607.56.607 1.25s-.272 1.25-.607 1.25Z"/><path d="M11.934.153c.133.119.209.29.209.472v.625h.607c1.006 0 1.821.84 1.821 1.875V18.75h1.822c.335 0 .607.28.607.625a.616.616 0 0 1-.607.625H.607A.616.616 0 0 1 0 19.375c0-.345.272-.625.607-.625H2.43V1.875a.62.62 0 0 1 .52-.619l8.5-1.25a.595.595 0 0 1 .485.147ZM12.75 2.5h-.607v16.25h1.214V3.125a.616.616 0 0 0-.607-.625Zm-9.107-.083V18.75h7.286V1.346L3.643 2.417Z"/></g></svg>