<svg xmlns="http://www.w3.org/2000/svg" width="91" height="60" fill="none"><g clip-path="url(#a)"><path fill="#0C1727" d="M.5 7.5A7.5 7.5 0 0 1 8 0h75a7.5 7.5 0 0 1 7.5 7.5v45A7.5 7.5 0 0 1 83 60H8a7.5 7.5 0 0 1-7.5-7.5v-45Z"/><path fill="#FF5F00" d="m54.883 12.239-19.36.066.594 35.456 19.36-.066-.594-35.456Z"/><path fill="#EB001B" d="M36.796 30.106c-.122-7.212 3.107-13.62 8.165-17.776-3.82-2.997-8.607-4.8-13.796-4.782-12.294.041-22.07 10.171-21.86 22.65.21 12.48 10.325 22.543 22.619 22.501a21.63 21.63 0 0 0 13.633-4.875c-5.196-4.059-8.64-10.507-8.762-17.718Z"/><path fill="#F79E1B" d="M81.695 29.802c.21 12.48-9.566 22.61-21.86 22.651-5.19.018-9.977-1.785-13.796-4.782 5.12-4.157 8.287-10.564 8.166-17.776-.122-7.212-3.565-13.597-8.762-17.718a21.63 21.63 0 0 1 13.633-4.875c12.294-.042 22.41 10.083 22.62 22.5Z"/></g><defs><clipPath id="a"><path fill="#fff" d="M.5 0h90v60H.5z"/></clipPath></defs></svg>