<svg xmlns="http://www.w3.org/2000/svg" width="18" height="18" fill="none"><path fill="#fff" fill-rule="evenodd" d="M12.375 16.875a4.5 4.5 0 1 0 0-9 4.5 4.5 0 0 0 0 9Zm5.625-4.5a5.625 5.625 0 1 1-11.25 0 5.625 5.625 0 0 1 11.25 0Z" clip-rule="evenodd"/><path fill="#fff" d="M10.617 13.437c.054.67.583 1.194 1.534 1.255v.495h.422v-.498c.984-.069 1.56-.595 1.56-1.358 0-.695-.44-1.052-1.227-1.238l-.333-.079v-1.348c.422.048.69.279.755.598h.74c-.053-.646-.608-1.151-1.495-1.206v-.495h-.421v.505c-.841.082-1.413.588-1.413 1.303 0 .633.425 1.035 1.133 1.2l.28.069v1.43c-.433-.065-.72-.303-.784-.633h-.75Zm1.53-1.523c-.414-.096-.64-.292-.64-.588 0-.33.244-.577.645-.65v1.238h-.004Zm.487.84c.505.116.737.305.737.639 0 .381-.29.643-.798.69V12.74l.061.014Z"/><path fill="#fff" d="M1.125 0C.504 0 0 .504 0 1.125v9c0 .621.504 1.125 1.125 1.125h4.593a6.7 6.7 0 0 1 .291-1.125H3.375a2.25 2.25 0 0 0-2.25-2.25v-4.5a2.25 2.25 0 0 0 2.25-2.25h11.25a2.25 2.25 0 0 0 2.25 2.25v3.969c.428.382.806.819 1.125 1.298V1.125C18 .504 17.496 0 16.875 0H1.125Z"/><path fill="#fff" d="M11.248 5.719A2.25 2.25 0 1 0 7.727 7.48a6.73 6.73 0 0 1 3.521-1.762Z"/></svg>