<svg width="18" height="18" viewBox="0 0 18 18" fill="none" xmlns="http://www.w3.org/2000/svg">
<g id="Vector">
<path d="M2.25 1.17694C1.62868 1.17694 1.125 1.70387 1.125 2.35388V11.7694C1.125 12.4194 1.62868 12.9463 2.25 12.9463H13.034C13.6307 12.9463 14.203 13.1943 14.625 13.6358L16.875 15.9897V2.35388C16.875 1.70387 16.3713 1.17694 15.75 1.17694H2.25ZM15.75 0C16.9926 0 18 1.05387 18 2.35388V17.4104C18 17.9346 17.3941 18.1972 17.0398 17.8265L13.8295 14.468C13.6185 14.2473 13.3324 14.1233 13.034 14.1233H2.25C1.00736 14.1233 0 13.0694 0 11.7694V2.35388C0 1.05387 1.00736 0 2.25 0H15.75Z" fill="white"/>
<path d="M5.625 7.06164C5.625 7.71165 5.12132 8.23858 4.5 8.23858C3.87868 8.23858 3.375 7.71165 3.375 7.06164C3.375 6.41163 3.87868 5.8847 4.5 5.8847C5.12132 5.8847 5.625 6.41163 5.625 7.06164Z" fill="white"/>
<path d="M10.125 7.06164C10.125 7.71165 9.62132 8.23858 9 8.23858C8.37868 8.23858 7.875 7.71165 7.875 7.06164C7.875 6.41163 8.37868 5.8847 9 5.8847C9.62132 5.8847 10.125 6.41163 10.125 7.06164Z" fill="white"/>
<path d="M14.625 7.06164C14.625 7.71165 14.1213 8.23858 13.5 8.23858C12.8787 8.23858 12.375 7.71165 12.375 7.06164C12.375 6.41163 12.8787 5.8847 13.5 5.8847C14.1213 5.8847 14.625 6.41163 14.625 7.06164Z" fill="white"/>
</g>
</svg>
