<svg xmlns="http://www.w3.org/2000/svg" width="18" height="18" fill="none"><g fill="#fff"><path d="M2.25 1.177c-.621 0-1.125.527-1.125 1.177v9.415c0 .65.504 1.177 1.125 1.177h10.784a2.2 2.2 0 0 1 1.591.69l2.25 2.354V2.354c0-.65-.504-1.177-1.125-1.177H2.25ZM15.75 0C16.993 0 18 1.054 18 2.354V17.41c0 .525-.606.787-.96.416l-3.21-3.358a1.1 1.1 0 0 0-.796-.345H2.25C1.007 14.123 0 13.07 0 11.77V2.354C0 1.054 1.007 0 2.25 0h13.5Z"/><path d="M5.625 7.062c0 .65-.504 1.177-1.125 1.177s-1.125-.527-1.125-1.177.504-1.177 1.125-1.177 1.125.527 1.125 1.177Zm4.5 0c0 .65-.504 1.177-1.125 1.177s-1.125-.527-1.125-1.177S8.379 5.885 9 5.885s1.125.527 1.125 1.177Zm4.5 0c0 .65-.504 1.177-1.125 1.177s-1.125-.527-1.125-1.177.504-1.177 1.125-1.177 1.125.527 1.125 1.177Z"/></g></svg>