<svg xmlns="http://www.w3.org/2000/svg" width="91" height="60" fill="none"><g clip-path="url(#a)"><path fill="#0C1727" d="M.5 7.5A7.5 7.5 0 0 1 8 0h75a7.5 7.5 0 0 1 7.5 7.5v45A7.5 7.5 0 0 1 83 60H8a7.5 7.5 0 0 1-7.5-7.5v-45Z"/><path fill="#3362AB" d="M77.956 18.816h-4.715c-1.425 0-2.522.439-3.18 1.864l-8.99 20.504h6.359s1.096-2.74 1.316-3.399h7.785c.219.768.767 3.29.767 3.29H83l-5.044-22.26ZM70.5 33.18c.548-1.316 2.412-6.25 2.412-6.25 0 .11.548-1.316.768-2.083l.438 1.973s1.207 5.373 1.426 6.47H70.5v-.11Zm-8.991.658c0 4.605-4.167 7.675-10.636 7.675-2.741 0-5.373-.548-6.798-1.206l.877-5.044.767.33c1.974.876 3.29 1.205 5.702 1.205 1.754 0 3.618-.658 3.618-2.193 0-.987-.767-1.644-3.18-2.741-2.302-1.097-5.372-2.85-5.372-6.03 0-4.387 4.276-7.347 10.307-7.347 2.303 0 4.276.438 5.482.987l-.877 4.824-.438-.438c-1.097-.439-2.522-.878-4.606-.878-2.302.11-3.399 1.097-3.399 1.974 0 .987 1.316 1.755 3.4 2.741 3.508 1.645 5.153 3.51 5.153 6.14Z"/><path fill="#F9B50B" d="m8 19.035.11-.438h9.43c1.315 0 2.302.438 2.631 1.864l2.083 9.868C20.171 25.066 15.346 20.79 8 19.035Z"/><path fill="#3362AB" d="m35.522 18.816-9.54 22.259h-6.469l-5.482-18.64c3.947 2.521 7.236 6.468 8.443 9.21l.658 2.302 5.92-15.24h6.47v.109Zm2.522-.11h6.03l-3.837 22.369h-6.03l3.837-22.369Z"/></g><defs><clipPath id="a"><path fill="#fff" d="M.5 0h90v60H.5z"/></clipPath></defs></svg>