<svg width="757" height="756" viewBox="0 0 757 756" fill="none" xmlns="http://www.w3.org/2000/svg">
<path fill-rule="evenodd" clip-rule="evenodd" d="M508.221 49.769C437.318 62.249 378.272 112.286 353.909 180.536C346.245 202.005 343.398 219.882 343.34 246.887C343.283 274.124 345.236 286.835 353.111 310.47C357.669 324.15 371.835 353.387 373.907 353.387C374.543 353.387 376.268 350.181 377.739 346.262C387.968 319.031 406.176 291.15 427.955 269.37C458.85 238.476 497.361 217.868 541.971 208.355C561.357 204.222 606.285 204.614 627.003 209.099C666.314 217.607 702.846 236.109 731.346 261.947C736.914 266.994 741.471 270.779 741.471 270.354C741.471 269.931 738.719 261.608 735.354 251.861C721.95 213.027 695.288 166.58 667.385 133.452C643.308 104.867 607.293 73.943 576.263 55.2095L563.304 47.387L541.763 47.522C529.916 47.5955 514.821 48.6065 508.221 49.769ZM176.402 57.83C144.978 77.8355 112.812 105.845 89.5579 133.452C61.4959 166.769 34.8739 213.227 21.4519 252.305L15.2119 270.473L17.6464 283.46C33.0154 365.483 98.3254 429.906 180.36 443.965C198.329 447.044 229.937 447.101 247.4 444.088C274.221 439.458 300.137 429.524 321.716 415.599C332.646 408.545 355.971 389.754 355.971 388.004C355.971 387.5 348.195 385.592 338.69 383.763C258.722 368.383 195.314 313.142 170.07 236.867C162.041 212.603 159.084 193.881 159.098 167.387C159.116 130.994 165.479 103.874 181.623 71.387C187.158 60.2495 191.919 50.6315 192.204 50.012C193.323 47.576 189.665 49.3865 176.402 57.83ZM4.61738 319.145C1.97888 326.021 0.175883 359.408 0.879383 388.367C1.71788 422.858 4.40588 442.875 12.3064 473.469C22.3159 512.234 40.4809 553.021 62.0389 585.137C68.6029 594.917 70.0009 596.091 82.4044 602.249C114.201 618.036 138.509 623.861 172.971 623.954C228.603 624.104 275.798 604.726 314.804 565.719C344.141 536.382 364.031 498.485 371.138 458.387C373.227 446.6 373.997 403.916 372.153 402.069C371.565 401.481 366.207 405.517 360.245 411.036C334.523 434.852 297.938 453.508 261.261 461.513C189.543 477.166 115.748 456.299 62.3194 405.26C36.7474 380.832 21.7009 357.714 6.65438 319.734C5.69888 317.322 5.35538 317.222 4.61738 319.145ZM439.29 369.162C426.528 371.243 414.468 374.252 406.031 377.459C402.299 378.878 402.503 379.136 413.831 387.263C461.898 421.75 492.207 469.163 503.922 528.191C507.926 548.363 507.572 588.995 503.213 609.419C496.998 638.547 485.618 665.755 469.686 689.571C457.64 707.581 432.95 733.069 415.88 745.117C408.474 750.343 403.137 754.859 404.018 755.153C406.914 756.117 435.864 752.294 454.971 748.421C525.386 734.151 592.259 698.3 644.511 646.805C660.017 631.525 660.528 630.527 666.126 604.638C669.417 589.419 669.72 546.701 666.648 531.137C650.87 451.184 592.577 390.596 513.471 371.93C493.23 367.152 459.366 365.889 439.29 369.162Z" fill="white"/>
<path d="M389.256 468.419C391.974 455.849 392.576 448.16 392.642 425.085L392.721 397.034L396.471 399.396C406.896 405.96 422.802 419.163 432.188 429.044C452.049 449.952 467.916 476.478 477.105 504.137C493.688 554.052 489.605 609.849 465.917 657.023C444.507 699.657 403.631 736.778 360.092 753.122C353.657 755.537 351.398 755.622 336.842 753.989C271.697 746.684 205.467 720.756 153.953 682.391C129.752 664.368 95.4226 632.291 100.47 632.418C101.159 632.436 107.399 634.116 114.338 636.152C135.125 642.251 157.398 644.88 180.471 643.958C238.193 641.651 289.161 619.625 328.916 579.81C359.663 549.017 379.913 511.635 389.256 468.419Z" fill="#D5A848"/>
<path d="M484.274 250.553C505.714 238.562 534.126 228.987 557.085 226.014C607.101 219.54 662.632 234.03 702.471 263.954C717.591 275.309 736.879 294.996 745.903 308.286C752.03 317.309 752.498 318.762 754.562 335.231C757.645 359.828 756.396 413.556 752.169 438.219C743.04 491.48 724.542 539.646 696.761 582.492C692.889 588.462 689.384 593.355 688.971 593.366C688.559 593.375 688.22 580.728 688.217 565.26C688.213 534.425 686.518 522.948 678.307 498.137C667.346 465.024 650.12 437.349 624.565 411.794C583.919 371.147 535.708 350.085 478.221 347.864C448.934 346.731 430.988 349.181 398.126 358.8C394.77 359.781 394.602 359.561 395.615 355.494C397.614 347.462 408.392 326.09 416.867 313.352C432.671 289.602 460.036 264.107 484.274 250.553Z" fill="#D5A848"/>
<path d="M302.722 7.02961C315.79 4.42711 324.091 3.20461 348.472 0.293112C351.359 -0.0503884 368.234 -0.0998885 385.972 0.186611C424.075 0.798611 447.043 3.95611 479.722 13.0731C492.22 16.5591 521.285 26.5791 520.661 27.1851C520.42 27.4191 514.147 28.6581 506.722 29.9361C484.084 33.8361 467.198 39.4551 445.222 50.3991C419.957 62.9811 403.4 75.1146 384.205 95.1141C346.076 134.839 325.796 182.519 323.479 237.887C321.715 280.01 330.944 319.394 350.692 354.014C354.419 360.547 357.239 366.119 356.962 366.397C355.732 367.627 328.505 361.832 316.228 357.728C285.481 347.45 260.695 332.009 237.329 308.576C209.617 280.783 193.268 251.518 183.256 211.781C178.861 194.335 177.754 155.303 181.103 135.887C187.552 98.5026 201.836 67.6911 226.387 38.2086C235.606 27.1371 236.315 26.6346 249.062 22.1421C268.627 15.2466 285.925 10.3761 302.722 7.02961Z" fill="#D5A848"/>
</svg>
